<svg xmlns="http://www.w3.org/2000/svg" viewBox="0 0 144.56 133.33"><defs><style>.cls-1{fill:#b75c1e;}.cls-2{fill:#fcf0e2;}.cls-3{fill:#c26b1d;}.cls-4{fill:#e19441;}.cls-5{fill:#eea25a;}.cls-6{fill:#cd9c72;}.cls-7{fill:#93381d;}.cls-8{fill:#c2602c;}.cls-9{fill:#762618;}.cls-10{fill:#5d1c14;}.cls-11{fill:#a55c35;}.cls-12{fill:#481715;}.cls-13{fill:#c0a691;}.cls-14{fill:#893c1b;}.cls-15{fill:#92451d;}.cls-16{fill:#6d2817;}.cls-17{fill:#561d14;}.cls-18{fill:#b46837;}.cls-19{fill:#9a6342;}.cls-20{fill:#913f1d;}.cls-21{fill:#421814;}.cls-22{fill:#bd9a7d;}.cls-23{fill:#341513;}.cls-24{fill:#d8af8e;}.cls-25{fill:#9a3f1d;}.cls-26{fill:#632915;}.cls-27{fill:#7d2819;}.cls-28{fill:#4d1d14;}.cls-29{fill:#cb761b;}.cls-30{fill:#e49645;}.cls-31{fill:#662515;}.cls-32{fill:#a4471e;}.cls-33{fill:#832d1a;}.cls-34{fill:#682016;}.cls-35{fill:#3f1914;}.cls-36{fill:#cb6e36;}.cls-37{fill:#8e421c;}.cls-38{fill:#862c1b;}.cls-39{fill:#502a14;}.cls-40{fill:#fff;}.cls-41{fill:#94441d;}.cls-42{fill:#9d4d1d;}.cls-43{fill:#7d301a;}.cls-44{fill:#a55027;}.cls-45{fill:#743118;}.cls-46{fill:#622815;}.cls-47{fill:#632415;}.cls-48{fill:#692716;}.cls-49{fill:#541f14;}.cls-50{fill:#722f18;}.cls-51{fill:#4d1f15;}.cls-52{fill:#843c1b;}.cls-53{fill:#ac6937;}.cls-54{fill:#6f2c17;}.cls-55{fill:#914722;}.cls-56{fill:#6c2c17;}.cls-57{fill:#391e15;}.cls-58{fill:#2c1813;}.cls-59{fill:#1e1311;}.cls-60{fill:#d88142;}.cls-61{fill:#d18647;}.cls-62{fill:#c06f3b;}</style></defs><title>Bear</title><g id="Layer_2" data-name="Layer 2"><g id="svg2"><g id="g10"><g id="g12"><path id="path1800" class="cls-1" d="M2.49,110.63c-1,3.14,2.47,6.4,4.69,8.24a27.12,27.12,0,0,1,4.71,4.56,51,51,0,0,0,3.4,4.82,9.19,9.19,0,0,0,10.12,2.58,5.83,5.83,0,0,0,2.2-1.51.22.22,0,0,0,.32.12,17.61,17.61,0,0,0,4.55-3.15l.13,0a31.18,31.18,0,0,1,3-2c.82-.42,1.82-.73,2.63-1.23a2.4,2.4,0,0,0,.24,1.33c.68,1.33,2.53,1.63,3.84,1.34l.13-.07a2.52,2.52,0,0,0,.56.41,4.42,4.42,0,0,0,3.44-.05l0,0a5.17,5.17,0,0,0,4.93.36l.13-.1c2.34,1.27,5.64,0,7.22-1.64a11.64,11.64,0,0,0,1.33-2,19.21,19.21,0,0,0,1.34-3,10.7,10.7,0,0,1,4.18-.25,14.06,14.06,0,0,1,1.94.34,13.7,13.7,0,0,0,1.85.5A10.59,10.59,0,0,0,73,126.34a7.38,7.38,0,0,0,2.72,1.23,5.7,5.7,0,0,0,3.78.13,2.27,2.27,0,0,0,.39-.16c1.67.6,4.41,1.27,6.19.3l0,.07c.58.53,1.71.15,2.31-.2l.1-.06h0a3.31,3.31,0,0,0,4.15-1.57,2.28,2.28,0,0,0,0-2.29c1.45.68,3,1.1,4.52,1.73s2.91,1.28,4.32,2a34.4,34.4,0,0,0,3.22,2.74,5.66,5.66,0,0,0,4.26,2.81,21.66,21.66,0,0,0,7.86-.4,23.52,23.52,0,0,0,5.93-2.35q2.46-.9,5-1.73a27.54,27.54,0,0,0,7.33-3.47,12.83,12.83,0,0,0,4.57-5.07,6,6,0,0,0,.49-3,3.62,3.62,0,0,0,4-2,3.13,3.13,0,0,0-1.37-4.39"/><path id="path1800-2" data-name="path1800" class="cls-1" d="M142.78,110.66h0a4.14,4.14,0,0,0,.08-1.88,2.76,2.76,0,0,0-1.7-2c.73-2-.11-4.64-2.49-4.59a5.6,5.6,0,0,0-.08-4.59c-1.3-2.38-4.76-1.88-6.77-.91a7.87,7.87,0,0,0-3.51,3.38c-.47.3-.93.61-1.39.93a23.76,23.76,0,0,0,.78-6.16,22.11,22.11,0,0,0-1.2-8.06,18.62,18.62,0,0,0-4.07-6.41c-1.35-1.41-3-3.28-5-3.8a5.73,5.73,0,0,1,2.79.56l.05-.09-.24-.22,0,0a6,6,0,0,0-4.16-1.7,7.19,7.19,0,0,0-3.67.54,72,72,0,0,0-.09-9.06c-.35-5-1.16-10-1.91-15a70.5,70.5,0,0,0-1.36-7,56.35,56.35,0,0,0-2.42-7l0,0c-.64-2.24-1.32-4.46-2.14-6.65a39.76,39.76,0,0,0-8.58-13.4A30.28,30.28,0,0,0,82.51,9.22a76.85,76.85,0,0,0-8.46-2,81,81,0,0,0-8.33-1.44c-6.28-.53-12.14,1.87-17.14,5.52A61.07,61.07,0,0,0,23.27,57.86a58.22,58.22,0,0,0,1.51,17.8c.32,1.17.7,2.31,1.12,3.43-2-.24-3.89-.19-5.55,1.07l0,.09.6-.18a6,6,0,0,1,1.05.16,3.29,3.29,0,0,1,.68.26,2.43,2.43,0,0,0-.77.09,11,11,0,0,0-2.06.87,12.33,12.33,0,0,0-3.56,3.19,31.93,31.93,0,0,0-4.79,8.22,4.75,4.75,0,0,0-1.49.12,3.87,3.87,0,0,0-3,3.34c-.88-.32-1.75.35-2.39.91A4.36,4.36,0,0,0,3.2,100.1a3,3,0,0,0-2.8,1"/><path id="path1802" class="cls-2" d="M126.49,86.87v0M120,76.82a4.71,4.71,0,0,0-.92-.76,4.71,4.71,0,0,1,.92.76m-.93-.76h0"/><path id="path1804" class="cls-3" d="M111.3,107.64a1.69,1.69,0,0,1-1.66-1,5.77,5.77,0,0,1-.15-2.74c.56-5.17,3.22-9.74,4.29-14.78a19.76,19.76,0,0,0,.32-5.48,14.73,14.73,0,0,1,.17-5.54,3.86,3.86,0,0,1,2-2.3,8.24,8.24,0,0,1,1.86.33,4.36,4.36,0,0,0-.51,0,5.48,5.48,0,0,0-1.43.2,6.12,6.12,0,0,1,1.48.35h-.3c2,.52,3.64,2.39,5,3.8a18.62,18.62,0,0,1,4.07,6.41h0v.05a22.14,22.14,0,0,1,1.16,5.88c0,.33-.08.66-.14,1a9.17,9.17,0,0,1-2.87,5.35c-2,1.79-4.81,2.29-7,3.79-1.84,1.26-2.94,3.37-5,4.41a3.25,3.25,0,0,1-1.39.35"/><path id="path1806" class="cls-3" d="M84.37,100.58a6,6,0,0,1-.85-.06c-1.48-.22-1.94-1.5-1.93-2.84,0-3,1.64-6.13,2.91-8.82a114.16,114.16,0,0,1,8.29-13.74c1.63-2.46,3.1-5,4.73-7.48a41.35,41.35,0,0,0,4.09-7,36.65,36.65,0,0,0,3-12.44A9.44,9.44,0,0,1,105.2,46c1.38.86,1.79,3,2.1,4.42.38,1.79.54,3.62.77,5.43a44.69,44.69,0,0,1-1,17.46A50,50,0,0,1,99.76,88.4c-2.67,3.93-5.6,7.94-9.77,10.39a12,12,0,0,1-5.62,1.79"/><path id="path1808" class="cls-3" d="M40.93,91.27a5.76,5.76,0,0,1-3-1.36,26.17,26.17,0,0,1-2.74-2.29,28.31,28.31,0,0,1-4.4-5.53,40.42,40.42,0,0,1-5-13.22A50.85,50.85,0,0,1,25,55,39.92,39.92,0,0,1,27.7,42.66a.28.28,0,0,0,.13,0,.2.2,0,0,0,.2-.13c.31-.75.49-1.55.85-2.28.19-.39.51-.72.84-.72a.78.78,0,0,1,.62.43,3.22,3.22,0,0,1,.16,1.77c-.14,2.93-.63,5.92-.48,8.85.27,5.1,2.93,9.45,5.66,13.61a41.74,41.74,0,0,1,4,7.21c1,2.54,1.84,5.16,2.67,7.77a39.49,39.49,0,0,1,1.57,6c.32,2.15.14,5.86-2.74,6.1h-.2"/><path id="path1810" class="cls-2" d="M99,21.49l0,0,0,0m0-.06a44.6,44.6,0,0,0-3.27-3.87A44.6,44.6,0,0,1,99,21.43"/><path id="path1812" class="cls-3" d="M102.15,34.19a1.77,1.77,0,0,1-1.28-.66,11.52,11.52,0,0,1-1.45-2.47,23.84,23.84,0,0,0-1.66-2.79A37.24,37.24,0,0,0,79.47,13.94a9.82,9.82,0,0,0,5-2.63,35,35,0,0,1,3.63,1.8c6.82,3.92,10.51,11,14.56,17.4l.14-.08c-3.2-6.73-7.33-13.38-13.75-17.51a27.3,27.3,0,0,0-4.15-2.17,4.8,4.8,0,0,0,.32-.54,30.57,30.57,0,0,1,10.42,7.3l0,0A44.6,44.6,0,0,1,99,21.43h0l0,0a39.15,39.15,0,0,1,4.15,6.89l.21,1.59a10.06,10.06,0,0,1,0,3.05c-.16.81-.64,1.17-1.19,1.17M33.71,29.3l-.16-.05,1.71-2a7.86,7.86,0,0,0-.41,1.33c-.26.15-.51.31-.75.47a3.89,3.89,0,0,0-.39.28m-.42-.2a1.32,1.32,0,0,1-.35-.85,2.68,2.68,0,0,1,0-.4,62.16,62.16,0,0,1,7.58-9.51h0a41.07,41.07,0,0,0-2.61,3.79c-.54.88-1,1.8-1.48,2.71-1.11,1.43-2.16,2.86-3.14,4.26M70.34,9.62l-.06,0a60.44,60.44,0,0,0-7.61-2l-.87-.19a23.28,23.28,0,0,1,2.81-.26l.8,0a33.71,33.71,0,0,1,5.07.44c-.08.7-.12,1.39-.14,2.07M60.34,7a9.25,9.25,0,0,1-1.67-.62A21.82,21.82,0,0,1,64,5.74c.57,0,1.16,0,1.74.07a45.32,45.32,0,0,1,4.88.75c0,.11,0,.23,0,.34a40.31,40.31,0,0,0-4.48-.41h-.71a23.28,23.28,0,0,0-5,.55"/><path id="path1814" class="cls-4" d="M102.81,30.43c-3.2-6.73-7.33-13.38-13.75-17.51a36.83,36.83,0,0,0-10.4-4.28A56.54,56.54,0,0,0,66.08,6.49C51.62,6,40,19.3,32.56,30.14l.14.11C41.07,20.51,50.37,7.62,64.61,7.13,68.78,7,73.15,8,77.18,9a40.41,40.41,0,0,1,10.93,4.16c6.82,3.92,10.51,11,14.56,17.4l.14-.08"/><path id="path1816" class="cls-2" d="M19.66,81.59l.05,0h0l0,0"/><path id="path1818" class="cls-3" d="M27.14,104.69a2.62,2.62,0,0,1-1.51-.68,11.74,11.74,0,0,1-2.34-3.07,23.72,23.72,0,0,0-4.74-5.45C16.75,94,14.17,93,14.2,90.3c0-2.23,1.64-4.36,2.94-6,.59-.76,1.22-1.49,1.84-2.23a7.15,7.15,0,0,1,.68-.44l0,0-.43.28a9.41,9.41,0,0,1,3.36-1q.3-.06.6-.09l.06,0,.11,0,.45-.06v-.09l-.54,0a2.29,2.29,0,0,0-1.77-.58h-.12a10.8,10.8,0,0,1,1.7-.41,4.24,4.24,0,0,1,.71,0h0a3.67,3.67,0,0,1,1.16.71c1.47,1.3,2.09,3.48,2.62,5.3A54.92,54.92,0,0,1,29.56,95c.27,2.55.58,5.63-.49,8a2.93,2.93,0,0,1-1.53,1.62,1.12,1.12,0,0,1-.4.07"/><path id="path1820" class="cls-5" d="M12,94.6A2.86,2.86,0,0,0,7.7,96.93c-.44,4.88,9.14,6.93,7.27,1.36a6.48,6.48,0,0,0-3-3.69"/><path id="path1822" class="cls-5" d="M4.2,102.73a2.57,2.57,0,0,0,1.52,1.35c1,.32,2.85-.59,2.54-2a5.23,5.23,0,0,0-2.39-3.29c-2-1.12-2.29,1.84-2,3.08a3.74,3.74,0,0,0,.3.81"/><path id="path1824" class="cls-5" d="M20.42,112c-.26-1.4-.39-2.69-.63-4.11a4.48,4.48,0,0,0-3-3.73c-2.5-.91-5.25,1.08-8.13,4.09-1.5,1.57-4,1.57-4.59,3-1,2.24.28,3.61,2.25,5s4,2.19,5.37,4.23c1.23,1.81,1.86,4,3.05,5.84s3.42,3.34,5.47,3.25c2.53-.12,3.54-3.17,3.49-5.64-.06-2.78-1.23-5.24-2.2-7.73A22.84,22.84,0,0,1,20.42,112"/><path id="path1826" class="cls-5" d="M1.81,109.82c.47-.58,0-1.28-.4-1.74"/><path id="path1828" class="cls-5" d="M2.22,107.51c2.06.75,2.66-2.07,1.33-3.82a4.22,4.22,0,0,0-2.32-1.77c-2.39-.31-.72,4.52.2,5.16a3.7,3.7,0,0,0,.79.43"/><path id="path1830" class="cls-5" d="M138.33,98.9c-1.5-2-4.79-.49-6.14,1-1.06,1.13-2.1,2.86-1.64,4.48a2.26,2.26,0,0,0,2.11,1.86,7,7,0,0,0,4.82-2.44c.94-1,2-3.48,1.15-4.83l-.3,0"/><path id="path1832" class="cls-5" d="M143.42,113.08a2.7,2.7,0,0,0-2.41.85c-.67.67-1.11,2,.2,2.31,1.61.39,3.68-2.1,2.21-3.16"/><path id="path1834" class="cls-5" d="M121.9,109.78a8.53,8.53,0,0,0-4.1,6,14.51,14.51,0,0,1-2.34,6,10.84,10.84,0,0,1-4.94,3.52c-1.47.6-2.74,1.65-2.29,3.44a3.41,3.41,0,0,0,2.49,2.46,16.36,16.36,0,0,0,6.93,0c2.71-.4,5.21-2,7.75-3,4.45-1.76,10.21-2.58,12.35-7.33.57-1.25,1.35-3.27.51-4.55-.67-1-1.9-1.15-2.94-1.63-2.27-1-3.08-3.67-5.14-4.92a8.69,8.69,0,0,0-8.28.15"/><path id="path1836" class="cls-5" d="M141.11,109.14c-1.26-.14-3.23,1.11-3.19,2.42.07,1.75,2.62,1.26,3.47.46a2.21,2.21,0,0,0,.73-1.61,1.08,1.08,0,0,0-1-1.27"/><path id="path1838" class="cls-5" d="M139.85,104.66a2.75,2.75,0,0,0-2.06.48c-.94.62-2.23,1.7-2.17,3,.09,1.79,2.56,1.2,3.5.51a4.69,4.69,0,0,0,1.54-1.82,4.35,4.35,0,0,0,.24-.75,1.27,1.27,0,0,0-1.05-1.38"/><path id="path1840" class="cls-6" d="M126.9,101c0-.05,0-.09,0-.13s0,.08,0,.13m0-.14v0m1.35-.79.12-.22-.12.22m-125-.55h0m0,0,0-.12,0,.12m0-.13h0M25.9,79.09a.76.76,0,0,0,0-.11.76.76,0,0,1,0,.11M112.08,66.6c0-.17,0-.33,0-.49,0,.16,0,.32,0,.49"/><path id="path1842" class="cls-7" d="M111.78,132.67l-.39-.09c-2.67-.65-5.26-2.2-5.74-5.12a10,10,0,0,1,.8-5.56c-.32.44-.61.9-.91,1.36.09-.26.17-.51.26-.76l-.14-.07c-.28.65-.56,1.28-.8,1.91s-.76,1.17-1.16,1.74a1.34,1.34,0,0,1-1.06.68c-1.86,0-3.77-5.54-4.17-6.6-1.94-5-.51-10.27,2.47-14.51q1.68-2.39,3.17-4.88l.18-.17-.05-.06a57.75,57.75,0,0,0,5-10.86,44.44,44.44,0,0,0,2.84-13.23l.11,0a2.93,2.93,0,0,1,1-.44,6.89,6.89,0,0,0-.73,2.48,40.82,40.82,0,0,0,0,5.53,27.37,27.37,0,0,1-.41,5.36,20.51,20.51,0,0,0-.41-2.57.2.2,0,0,0-.2-.14.17.17,0,0,0-.18.14A33.93,33.93,0,0,1,108.7,97c-1.53,3.22-4.12,5.84-5.89,8.94a.19.19,0,0,0,.17.29.18.18,0,0,0,.13-.06,12.34,12.34,0,0,1,3.16-2.1c-.92,1.62-2.1,3.08-2.9,4.77a16,16,0,0,0-1.18,6.72.18.18,0,0,0,.19.19.2.2,0,0,0,.2-.14,10,10,0,0,1,2.51-3.74,6.26,6.26,0,0,0,.67,4.48,2.5,2.5,0,0,0,2.2,1.13,4.84,4.84,0,0,0,2.36-.7c1.64-1,2.51-2.9,3.2-4.61a37.07,37.07,0,0,1,2.17-5.26,29.41,29.41,0,0,0,0,3.25.23.23,0,0,0,.22.2.16.16,0,0,0,.15-.1,17.1,17.1,0,0,1,3.59-5.88c-.17,1.11-.52,2.17-.71,3.27a.19.19,0,0,0,.19.24.2.2,0,0,0,.19-.13,14,14,0,0,1,4.16-5.15c.89-.73,1.85-1.35,2.72-2.1a5.07,5.07,0,0,0,.73-.8,6.54,6.54,0,0,1-.86,1.64l-.05.25c-.63.45-1.24.9-1.83,1.37a13.42,13.42,0,0,0-2.73,3.53l0,0a21.46,21.46,0,0,1,3.25-3.35c1-.68,2.07-1.27,3-2.06a10.79,10.79,0,0,0-.68,3.07h0a15.34,15.34,0,0,1,1.21-3.42,5.12,5.12,0,0,0,.1,2,2.48,2.48,0,0,0,2.16,1.74,2.19,2.19,0,0,0,2,1.6h0a6.36,6.36,0,0,0,3.77-1.49,7.72,7.72,0,0,1-3.93,2,8.23,8.23,0,0,0-4-1.32l0,.09c2.57.38,4.43,2.15,6.17,3.92l.17-.15a7.49,7.49,0,0,0-1.93-2.23,6.84,6.84,0,0,0,5.12-3.56c.12-.22.24-.46.35-.7h.06c-.11.26-.22.5-.26.59-.38.72-.8,1.42-1.22,2.13l-.26.42a2.92,2.92,0,0,0-1.13,2.16,1.21,1.21,0,0,0,1.39,1.19,4,4,0,0,0,2.11-.68l.2-.15.36-.2c-1,1.15-2.67,1.36-4.2,1.43v.11a6.42,6.42,0,0,0,1.05.1,4.91,4.91,0,0,0,3.42-1.3c-.32.41-.67.83-1,1.24a2.24,2.24,0,0,0-1.06,1.72c0,.87.68,1.19,1.42,1.19a3.3,3.3,0,0,0,.82-.11h.11a2,2,0,0,0,1.26-.49,3.62,3.62,0,0,1-3,1.16h0v.14l.58,0a3.48,3.48,0,0,0,3.36-1.92c-.31.79-1,1.42-1.24,2.23l-.16.15c-.67.67-1.11,2,.2,2.31a1.34,1.34,0,0,0,.35.05,2.51,2.51,0,0,0,1.72-.86,4.13,4.13,0,0,1-3.13,1.31,3.39,3.39,0,0,0-1.22-2.15l-.13.12c1.64,1.91.89,4.72-.42,6.59a16.6,16.6,0,0,1-4.74,4.16,41,41,0,0,1-7.06,3.07c-.64.26-1.28.51-1.92.78h0l-.53.25c-1.09.45-2.17.91-3.24,1.4-.88.34-1.78.65-2.7.91a25,25,0,0,1-6.37.81M108.14,128a3.71,3.71,0,0,0,.09.62,3.41,3.41,0,0,0,2.49,2.46,10.19,10.19,0,0,0,2.85.37,27.64,27.64,0,0,0,4.08-.4c2.71-.4,5.21-2,7.75-3,4.45-1.76,10.21-2.58,12.35-7.33a9.81,9.81,0,0,0,.82-2.47,2,2,0,0,0,.3-1.88c-.63-1.44-3.51-1.89-4.66-3.22-1.3-1.49-1.33-3.8-2.92-5.14a6.61,6.61,0,0,0-4.36-1.58,9.58,9.58,0,0,0-3.15.57,11.12,11.12,0,0,0-5.08,3.9,18.86,18.86,0,0,0-2.83,6.28c-.73,2.46-2.32,3.81-4.51,5-1.57.84-6.16,5-3.22,5.87M.56,106.59a5,5,0,0,0,1,1,2.91,2.91,0,0,0,1.7.73,1.17,1.17,0,0,0,.53-.11,8.56,8.56,0,0,0-.42.79l.07,0c2.2-3.39,5.89-5,9.49-6.49l.07-.06c1.67-.27,3-1.66,4-2.9l-.12-.11A7.21,7.21,0,0,1,12.66,102a3.15,3.15,0,0,1-.44,0,4.22,4.22,0,0,1-2.34-.77,3.27,3.27,0,0,0,1.64.43,3.83,3.83,0,0,0,.82-.1l.5,0c1.37,0,2.45-.66,2.36-2.18A4.16,4.16,0,0,0,15,95.78a7.18,7.18,0,0,0-1-1.4.57.57,0,0,1,.13.08,19.58,19.58,0,0,1,5.05,5.48,25.36,25.36,0,0,1,1.54,2.38,17.5,17.5,0,0,1,2,4h0a15.31,15.31,0,0,0-.56-2.5,20.68,20.68,0,0,0-3.4-5.59,17.22,17.22,0,0,0-4.53-4.47,9.81,9.81,0,0,1,1.59.79A20.61,20.61,0,0,1,21,99.64a14.79,14.79,0,0,1,3,6.18c.45,2.21.46,4.47.9,6.68a.17.17,0,0,0,.18.14.21.21,0,0,0,.2-.14,9.51,9.51,0,0,1,1-2.32,18.14,18.14,0,0,0,.84,5.37.2.2,0,0,0,.19.13.2.2,0,0,0,.2-.19,7.72,7.72,0,0,1,1.14-3.15c.24,1.73,1,3.83,3,3.94h.13c2.09,0,3-2.67,3.36-4.3a21.38,21.38,0,0,0-.11-8.94,17.65,17.65,0,0,0-1.6-4.84,34.88,34.88,0,0,1-2.52-4.44,12.06,12.06,0,0,1,2.76,2.13.19.19,0,0,0,.14,0A.19.19,0,0,0,34,95.7a13.55,13.55,0,0,0-2.16-4c-1-1.58-1.7-3.33-2.62-5a27.93,27.93,0,0,1-2.68-5.18c-.19-.63-.33-1.27-.5-1.88h.07a61.15,61.15,0,0,0,6.09,11.16c1.67,2.53,3.18,5.18,4.66,7.83a61.94,61.94,0,0,1,4.08,8,30.28,30.28,0,0,1,1.38,5.14c0,.28,0,.57,0,.85,0,1.51-.26,3.26-1.67,4.09l-.27-.07c-1.33-2.85-.69-6.27-1.36-9.28a20.24,20.24,0,0,0-2.48-6.6,22.84,22.84,0,0,0-1.5-2.49l-.11.07c.21.37.41.74.6,1.12-.15-.17-.31-.33-.47-.48a19,19,0,0,1,2.81,9.16,26.8,26.8,0,0,1-2.08,10.44,12.68,12.68,0,0,1-2.47,4.19c-.43.44-1.25,1.4-2,1.4a.82.82,0,0,1-.22,0c-.67-.18-.87-1-1-1.56a13.56,13.56,0,0,0-.71-2.66,20.07,20.07,0,0,0-.92,3.42,9.26,9.26,0,0,1-1.4,3.22A7.42,7.42,0,0,1,22.59,130a8.4,8.4,0,0,1-1.65.17m0,0a7.46,7.46,0,0,1-3.58-.9,12.17,12.17,0,0,1-2.46-2.29c-1-1.27-1.86-2.69-2.84-4a22,22,0,0,0-3.58-3.64c-2.34-2-6.39-5.27-5.67-8.77l0-.11a3.88,3.88,0,0,1,.27-.79l-.1-.06a4.32,4.32,0,0,0-.39.73H1.55a1.24,1.24,0,0,0,.31-.53c.38-.57-.06-1.23-.45-1.67a5.23,5.23,0,0,0-.82-.81c-.13-.13-.25-.27-.37-.41m3.52,5.9c0,1.43,1.08,2.49,2.58,3.58,1.86,1.36,4,2.19,5.37,4.23,1.23,1.81,1.86,4,3.05,5.84A7,7,0,0,0,20,129.66h.18c2.24-.1,3.29-2.5,3.46-4.76a1.58,1.58,0,0,0,1,.53c.4,0,.7-.31.78-.9a18.43,18.43,0,0,0-1.93-9.25c-1.47-2.45-1.75-5.66-2.26-8.36a5.39,5.39,0,0,0-5.47-4.6,6.92,6.92,0,0,0-5.59,3,6.65,6.65,0,0,1-4,2.75c-1,.29-2.77,1.64-2.35,3.21,0,.1.06.2.1.3a3.34,3.34,0,0,0-.24,1.22m80.16,15a10.81,10.81,0,0,1-3.3-.63,3.25,3.25,0,0,0,1.2-2.35,3.47,3.47,0,0,0-.11-1v-.18a1.91,1.91,0,0,1,.36-1.43,2,2,0,0,1,1.46-.54,3.8,3.8,0,0,1,.89.11,3.44,3.44,0,0,0-.46,0l-.36,0h0c-.89,0-1.63.58-1.27,1.67.15.45.42.84.57,1.3a2.06,2.06,0,0,0,.59,1,2.4,2.4,0,0,0,1.65.56h0a2.09,2.09,0,0,0,2-1.23,2.28,2.28,0,0,1-.53,1.69,3.41,3.41,0,0,1-2.69,1m2.74-.25a3,3,0,0,0,.66-.79,3.06,3.06,0,0,0,.39-1.36,2.85,2.85,0,0,0,0-1.2,8.63,8.63,0,0,0-.53-1.42l-.08-.09c.19.23.46.46.56.62a7.17,7.17,0,0,1,.59,2.21.84.84,0,0,0,.8.58h0a.66.66,0,0,0,.34-.12.64.64,0,0,0,.18-.06,3.42,3.42,0,0,1-3,1.63m-8.64-.1a7.06,7.06,0,0,1-1.28-.14,6.21,6.21,0,0,1-.75-.31,7.85,7.85,0,0,1-1.53-.5A7.5,7.5,0,0,1,71.05,123a2.25,2.25,0,0,1,1-1.54,6,6,0,0,1,3.26-.8,12.54,12.54,0,0,1,1.41.09l.41.06-.44,0h-.06c-1.3,0-3,.73-2.51,2.18.53,1.76,2.88,2.3,4.44,2.41h.34a3.3,3.3,0,0,0,2.33-.74,2.76,2.76,0,0,1-2.14,2.52,3.51,3.51,0,0,1-1.11.16m11.92-.16a4,4,0,0,1-.68-.07,3.06,3.06,0,0,0,1.09-1.68,2.17,2.17,0,0,0,0-.25,1.94,1.94,0,0,0,0-1.74,1.91,1.91,0,0,1-.37-.88,1.24,1.24,0,0,0,.17.3c.46.61.94,1,.89,1.86,0,.44-.27,1.21.23,1.51a.94.94,0,0,0,.45.14h0a2.55,2.55,0,0,1-.47.4,2.16,2.16,0,0,1-1.33.41m-41-1a3,3,0,0,1-3.06-2,1.32,1.32,0,0,0,1.13.72,1.51,1.51,0,0,0,.6-.13c.93-.4,1.11-1.34,1.27-2.26a2.81,2.81,0,0,1,1.4-2c.19-.12.41-.19.59-.31a6.51,6.51,0,0,1-.45.52,2.16,2.16,0,0,0-.53,1.68,2.69,2.69,0,0,0,.22,2.56,4.26,4.26,0,0,0,.8.88,5.81,5.81,0,0,1-2,.36m4.83-.28a5.74,5.74,0,0,1-2.25-.48,1.82,1.82,0,0,1-1.11-2.06,1.65,1.65,0,0,0,1.48.89,3.87,3.87,0,0,0,.48,0,6.52,6.52,0,0,0,4.8-2.54,2,2,0,0,0,.44-2c-.21-.48-.85-.6-1.41-.63l-.28-.08h.27c1.82,0,3.7.79,3.49,2.82-1.36,2.28-3.41,4.11-5.91,4.11m-9.29-.24a2.23,2.23,0,0,1-2.31-1.6,1.75,1.75,0,0,0,.55.43,1.19,1.19,0,0,0,.56.14,1.55,1.55,0,0,0,1.38-1.47c.08-1,.12-2.1,1-2.67l.7-.45a2.53,2.53,0,0,0-.75,1.3,4.22,4.22,0,0,0-.34,2.69,3.15,3.15,0,0,0,.64,1.42,5.92,5.92,0,0,1-1.46.21m-3-.54a3.61,3.61,0,0,1-1.6-.37,1.55,1.55,0,0,1-.74-.68.93.93,0,0,0,.46.12,1.31,1.31,0,0,0,.9-.41,2.41,2.41,0,0,0,.46-1.45,3.36,3.36,0,0,1,1.67-2.19l0,0c0,.24-.32.47-.42.71a1.88,1.88,0,0,0-.14.38,3.49,3.49,0,0,0-.47,2.82,3.76,3.76,0,0,0,.41,1.05,5.46,5.46,0,0,1-.56,0m45.5-2.82a.39.39,0,0,1,0-.21.39.39,0,0,0,0,.21m4.72-.12a.39.39,0,0,1-.08-.1V122l.09.25M50,122.16a3.07,3.07,0,0,1,.61-1,4.7,4.7,0,0,0-.61,1m40.1,0h0m0,0h0m0,0h0m0,0h0m0,0h0M87.06,122h0m4.48,0a7,7,0,0,1-.66-2.65,16.3,16.3,0,0,0,.66,2.65m-48.95-2.06h0m0,0-.06,0,.06,0m-.06,0h0m0,0h0m-.09,0a3.4,3.4,0,0,0-.45,0h0a3.4,3.4,0,0,1,.45,0m19.07-.43.12-.36-.06.33-.06,0m20-.16a9,9,0,0,1-5.67-1.88A11.24,11.24,0,0,1,72.3,110a35.41,35.41,0,0,1,.44-11.19c.75-2.37,1.69-4.7,2.61-7q1.89-4.73,4.17-9.26c1-1.93,2.12-3.83,3.22-5.73C85,73,87.53,69.27,90.14,65.6c.87-1.23,1.66-2.52,2.45-3.8l2.59-3.62-.11-.09.37-.48h0a15.22,15.22,0,0,0-3.69,3.86.18.18,0,0,1-.16.1.2.2,0,0,1-.21-.18s0,0,0-.07A60.93,60.93,0,0,1,95,53.77h0A24.51,24.51,0,0,0,98,46.33h0l.06-.52a16,16,0,0,0-.08-4,9.66,9.66,0,0,0-2.11-7c.61.45,1.19.93,1.78,1.4l0,.07h0l.1-.11L97.64,36a5.26,5.26,0,0,0-3.59-3.5l0,.13a5.76,5.76,0,0,1,2.16,1.59,8.07,8.07,0,0,1,.74,1A6.64,6.64,0,0,0,94.59,34l0,0,.5.29a11.41,11.41,0,0,1,2.29,8.55,18.45,18.45,0,0,1-1,4.51l-.51,1.29c-.33.73-.71,1.44-1.07,2.16a4,4,0,0,0-.39-2.16V48.6l-.07-.06-.09-.17-.13.07c.06.15.1.3.15.46a8.77,8.77,0,0,1-1.13,3.92,15.26,15.26,0,0,1-2.22,3.59,12.88,12.88,0,0,1-3.24,2.53A7.81,7.81,0,0,0,86.19,60l-.09.1a15,15,0,0,0,1-4L87,56c0,.13-.1.26-.14.39l0,.05a20.82,20.82,0,0,1-2.58,4.39,15.14,15.14,0,0,1-3.72,3.23c-2.63,1.69-5.6,2.77-8.31,4.34a19.15,19.15,0,0,0-5.59,4.9A6.78,6.78,0,0,0,65,77.73a16.32,16.32,0,0,0-5.44-5.55c-3.74-2.3-8-3.45-12-5.26S39.62,63.34,36.88,60a12.89,12.89,0,0,1-1.11-1.55,15,15,0,0,1-1.35-3.36,7.65,7.65,0,0,1,.67-5.18,12.2,12.2,0,0,0,0,4.18,9.44,9.44,0,0,0,3.72,5.94c3.93,3.1,9.15,3.83,13.34,6.49a.14.14,0,0,0,.1,0,.2.2,0,0,0,.13-.34,6.05,6.05,0,0,1-1.28-2.81,12.27,12.27,0,0,0,5.25,4.44c2.26,1.06,5.05,1.88,6.33,4.2a.18.18,0,0,0,.16.1.22.22,0,0,0,.21-.2c.13-1.18,1.39-2,2.29-2.57s2-1.12,2.93-1.7A35.84,35.84,0,0,0,75,62.22a7.5,7.5,0,0,1-1.36,2.59.19.19,0,0,0,.18.29.15.15,0,0,0,.09,0,28.43,28.43,0,0,0,9.48-6.94,19.08,19.08,0,0,0,3-4.73A30.91,30.91,0,0,0,87.71,48a11.9,11.9,0,0,1,.34,5.9.24.24,0,0,0,.21.26.15.15,0,0,0,.12-.07,18.52,18.52,0,0,0,3.16-4.79,13.8,13.8,0,0,0,.92-5.08,9.26,9.26,0,0,1,.9,2.42.19.19,0,0,0,.18.14.21.21,0,0,0,.2-.14c.8-2.46,2-8.8-2.21-8.85h0a7.46,7.46,0,0,0-3.26,1.08,19,19,0,0,0-3.82,2.8c-.5.27-1,.55-1.5.84a19.11,19.11,0,0,0-4.59,3.33,16.1,16.1,0,0,0-2.1,3.5c-.58,1.12-1.24,2.59-2.37,3.28a9.37,9.37,0,0,0,.06-1.91.22.22,0,0,0-.21-.2.16.16,0,0,0-.09,0,10.17,10.17,0,0,0-2.24,3.24,10.66,10.66,0,0,1-4.2,3.73,19.81,19.81,0,0,1-3.94,1.75,8.74,8.74,0,0,1-2.6.54,2.3,2.3,0,0,1-1.34-.35,9.43,9.43,0,0,0,2-.42.2.2,0,0,0-.05-.36c-3.06-.44-6.18-.39-9.21-1.12a12.32,12.32,0,0,1-4.82-2.38c-1.23-1-1.72-2.59-2.55-3.87A7.54,7.54,0,0,0,41.75,49a33.56,33.56,0,0,0-3.2-1.8,3.72,3.72,0,0,0-1.45-.29c-1.9,0-3.65,1.4-3,3.67.43-1.94,1.25-1.73,1.81-2.43a4.06,4.06,0,0,0-.69,1.34l0,0a8.61,8.61,0,0,0-.53.75,10.66,10.66,0,0,0-1.12,1.46,15.72,15.72,0,0,1,1.15-5.71l-.16-.1a8.61,8.61,0,0,0-1.24,6.47,1.55,1.55,0,0,0,.06.82h.16a5.65,5.65,0,0,1,.4-1.16A7.21,7.21,0,0,0,33.81,55c.39,3.43,2.47,6.76,4.68,9.35.46.55.94,1.1,1.44,1.64a37.37,37.37,0,0,0,6.83,6.39l2,1.56c1.06,1.28,2.1,2.56,3,3.93a50.32,50.32,0,0,1,3.69,6.46,85.22,85.22,0,0,1,5.39,13.78,41.5,41.5,0,0,1,1.3,6.72,23.68,23.68,0,0,1-.75,3.71c-.85,2.87-2.3,5.83-4.89,7.5A10.4,10.4,0,0,1,51,117.57c-3,0-6-1.08-7.69-3.27-.1-.72-.22-1.43-.34-2.14s-.24-1.21-.4-1.81a23.69,23.69,0,0,0-.7-3,41.23,41.23,0,0,0-3.54-7.48c-1.48-2.66-3-5.32-4.58-7.9s-3.25-4.8-4.63-7.37c-.18-.34-.36-.68-.53-1a30.52,30.52,0,0,0,3,4.33A51.47,51.47,0,0,0,38,94.36c1.88,1.55,4.42,3.52,7,3.52a3,3,0,0,0,.42,0c3.07-.25,3.58-4.16,3.74-6.55A30.48,30.48,0,0,0,47,78.52a27,27,0,0,0-5-8.42,47.75,47.75,0,0,0-5.59-4.92,3.65,3.65,0,0,0,1.33.32h.08a.2.2,0,0,0,.14-.34,31.75,31.75,0,0,1-2.83-3.8,19.3,19.3,0,0,1-1.9-4.55,18.39,18.39,0,0,1-.42-9.28c.22-.88.58-2.07.07-2.92a6.26,6.26,0,0,0-1.14-1.16,3.52,3.52,0,0,1-1-1.78,8.92,8.92,0,0,1-.28-2.45,7.79,7.79,0,0,0,3,4,28.69,28.69,0,0,0,4.82,2.67A33.74,33.74,0,0,0,43,47.8a2.6,2.6,0,0,0,.26,1.12l0,0a3.82,3.82,0,0,0,2.08,1.45h.06a5.42,5.42,0,0,0,1.1.42l.44.1h0c1.29,1.86,3.55,2.68,5.71,3a17.86,17.86,0,0,0,2.82.22,18.74,18.74,0,0,0,5.1-.71c2.58-.72,5.28-1.76,7-3.85a38,38,0,0,1,3.55-3.85c.34-.3.7-.6,1.06-.89a75.61,75.61,0,0,1,7-4,60.54,60.54,0,0,1,7-2.47,11.46,11.46,0,0,0,5.42-4.2,5.41,5.41,0,0,0,1.22-3.28h0a4.88,4.88,0,0,0-.25-1.52l.17.22a6.07,6.07,0,0,1,1.06,2l.1.06.14-.07a7.83,7.83,0,0,0,.31-2.19h0A10.14,10.14,0,0,0,92,23.11,10.38,10.38,0,0,1,93.72,25c1.44,2.12,1.39,4.9,1.9,7.33a.16.16,0,0,0,.17.14.28.28,0,0,0,.12,0,10.7,10.7,0,0,1,3.72,7.76,5.07,5.07,0,0,0-.74-.89.21.21,0,0,0-.13,0,.2.2,0,0,0-.18.29c1.29,2.11,1.07,4.89,1,7.26a16.85,16.85,0,0,1-3,8.45.22.22,0,0,0,.16.31l.06,0a27,27,0,0,1,2.58-1,68.06,68.06,0,0,0-7.89,10A103.37,103.37,0,0,0,79.75,85.19a50.71,50.71,0,0,0-3.3,9.73C76,97,75.52,100,77,101.85a4.14,4.14,0,0,0,3.43,1.43,16.81,16.81,0,0,0,5.83-1.46A32.26,32.26,0,0,0,98,93.22c7.21-8,10.23-18.64,11-29.14.56,4.55-.06,13.42,1.07,13.42.14,0,.33-.16.55-.51,0,0,0,0,.07,0a.23.23,0,0,1,.13.08s.09.08.13.08,0,0,0-.06a19,19,0,0,0,.6-2.56,54.29,54.29,0,0,1-.56,6,42.68,42.68,0,0,1-1.2,5.48A28.74,28.74,0,0,1,107.27,92c-1.18,2-2.53,3.85-3.73,5.81a.18.18,0,0,1-.16.1.2.2,0,0,1-.18-.29A54.28,54.28,0,0,0,107.68,86c.44-1.86.84-3.76,1.11-5.66a14.35,14.35,0,0,0,.13-2.26c0,.2-.07.39-.11.59a34.9,34.9,0,0,0,.44-6.68,1.08,1.08,0,0,1-.07-.52l0-.25V71.1h-.08a57.32,57.32,0,0,1-2.87,15.68,48,48,0,0,1-2.75,6.73,48.74,48.74,0,0,1-3.89,6.06,70.54,70.54,0,0,0-6.29,9.7,24,24,0,0,0-2,4.56,15.84,15.84,0,0,1-6.71,5,9.72,9.72,0,0,1-3,.46m-39.71-.49a4.48,4.48,0,0,0,.63-.82,4.46,4.46,0,0,1-.54.75l-.09.07m.85-1.25c0-.11.08-.22.11-.33s.08-.33.11-.49a3.44,3.44,0,0,1-.22.82M3.39,108a2.45,2.45,0,0,1-1.57-.66l.17,0,.23.1a2,2,0,0,0,.65.12,1.34,1.34,0,0,0,1.28-1.07,1.73,1.73,0,0,0,.29-1.51,2.58,2.58,0,0,0-.65-1,2.25,2.25,0,0,0-.24-.36,7.83,7.83,0,0,0-.79-.9,2.93,2.93,0,0,1,0-2.18l.44,0a4.2,4.2,0,0,0,1.2,3,3.47,3.47,0,0,0,2.35,1.06,2,2,0,0,0,.42,0A11.35,11.35,0,0,0,4,107.94a2,2,0,0,1-.58.09m4.17-3.61,0,0H7.44A4.09,4.09,0,0,1,6,104.14h.2a2.42,2.42,0,0,0,1.15-.31,1.51,1.51,0,0,0,1-.74,1.16,1.16,0,0,0,0-.95v0a5.43,5.43,0,0,0-1.69-2.79L6.49,99a4.64,4.64,0,0,1,.13-2.18.72.72,0,0,1,.28.07l.09,0a5.67,5.67,0,0,0,1.26,3.72,5.25,5.25,0,0,0,3.15,1.86,13.93,13.93,0,0,0-3.84,1.91M9,100.49a5.8,5.8,0,0,1-.67-.83,4.2,4.2,0,0,1-.71-1.93,7.28,7.28,0,0,0,1.25,2.6,1,1,0,0,0,.13.16m94.52-5.76A46.51,46.51,0,0,0,107,86.25a55.52,55.52,0,0,0,1.44-5.54,1.42,1.42,0,0,1,0,.2,41,41,0,0,1-4.93,13.82M63.29,76.23a22,22,0,0,0-1.63-1.72l.59.56a14.14,14.14,0,0,1,1,1.16m49-4.34c0-1.77-.07-3.54-.19-5.29l0-.6v.11c0,.16,0,.32,0,.49h0c.12,1.75.19,3.52.19,5.29h0M30.65,37.83l0-.16.09-.06-.12.22"/><path id="path1844" class="cls-8" d="M12.84,101.63l-.5,0a4.6,4.6,0,0,0,1.34-.52,3.59,3.59,0,0,0,1.52-1.63c.09,1.52-1,2.18-2.36,2.18"/><path id="path1846" class="cls-8" d="M6.17,104.15H6l-.3-.14a2.15,2.15,0,0,0,.45,0l.47,0a4,4,0,0,0,.73-.17,2.45,2.45,0,0,1-1.15.31m2.1-2a3.62,3.62,0,0,0-.41-.68,8.21,8.21,0,0,1-1.28-2.13,5.43,5.43,0,0,1,1.69,2.79v0"/><path id="path1848" class="cls-8" d="M1.86,109.75a1.68,1.68,0,0,0-.22-1.3,6.88,6.88,0,0,0-1-1.18,5.23,5.23,0,0,1,.82.81c.39.44.83,1.1.45,1.67"/><path id="path1850" class="cls-8" d="M2.87,107.63a2,2,0,0,1-.65-.12l-.23-.1.38,0h.12a2.1,2.1,0,0,0,1.66-.9,1.34,1.34,0,0,1-1.28,1.07m.92-3.58a7.3,7.3,0,0,1-.92-1l-.11-.22a7.83,7.83,0,0,1,.79.9,2.25,2.25,0,0,1,.24.36"/><path id="path1852" class="cls-8" d="M132.7,106.2h0a2.19,2.19,0,0,1-2-1.6,5.37,5.37,0,0,0,.9.07,7,7,0,0,0,2-.29,8.81,8.81,0,0,0,5-4.16,8.85,8.85,0,0,1-1,3,5.23,5.23,0,0,1-4.82,3"/><path id="path1854" class="cls-8" d="M141.56,116.29a1.34,1.34,0,0,1-.35-.05c-1.31-.31-.87-1.64-.2-2.31l.16-.15a1.7,1.7,0,0,0,0,.6c.06.77.62,1,1.23,1a3.16,3.16,0,0,0,1-.17l.12,0a2.27,2.27,0,0,1-.18.25,2.51,2.51,0,0,1-1.72.86"/><path id="path1856" class="cls-8" d="M139.34,112.75c-.74,0-1.38-.32-1.42-1.19a2.24,2.24,0,0,1,1.06-1.72c-.8,1.16-1.14,2.23.78,2.73a2,2,0,0,0,.4.07,3.3,3.3,0,0,1-.82.11"/><path id="path1858" class="cls-8" d="M137,109.29a1.21,1.21,0,0,1-1.39-1.19,2.92,2.92,0,0,1,1.13-2.16c-.46.77-1,1.84-.15,2.41a2.41,2.41,0,0,0,1.39.41,3.26,3.26,0,0,0,1.33-.3l-.2.15a4,4,0,0,1-2.11.68"/><path id="path1860" class="cls-6" d="M58.5,124.89a2.39,2.39,0,0,0,.23-.22,2.39,2.39,0,0,1-.23.22m1.56-2.18a11.35,11.35,0,0,0,.62-1.22,11.35,11.35,0,0,1-.62,1.22"/><path id="path1862" class="cls-7" d="M50.85,120.25h0l.23-.23a.78.78,0,0,1-.24.24m-8.24-.06h0a.2.2,0,0,0,0-.29.2.2,0,0,1,0,.3m3.76-.08v0l.35-.24-.36.26m-3.84-.25h0m0,0h0m0,0h0l-.08,0h0l.08,0h0m-1.1,0h0a3,3,0,0,1,.31,0l-.31,0m9.76,0c0-.21-.27-.27-.63-.27a5.75,5.75,0,0,0-.69,0l-.15-.07a6.63,6.63,0,0,0-1.34.15h0a6.83,6.83,0,0,1,1.36-.15l.15.07a5.75,5.75,0,0,1,.69,0c.36,0,.63.06.63.27m4.71-.73-.35-.07h0l.39.07h0"/><path id="path1864" class="cls-9" d="M49.87,122.45a2.16,2.16,0,0,1,.53-1.68,6.51,6.51,0,0,0,.45-.52.78.78,0,0,0,.24-.24h0a.45.45,0,0,0,.09-.23c0-.21-.27-.27-.63-.27a5.75,5.75,0,0,0-.69,0l-.15-.07a6.83,6.83,0,0,0-1.36.15,4,4,0,0,0-2.21,1,3.35,3.35,0,0,0-.52.73,2.53,2.53,0,0,1,.75-1.3l.36-.26h0a.2.2,0,0,0,.1-.17.21.21,0,0,0-.1-.17,2.1,2.1,0,0,0-1.15-.33,4.3,4.3,0,0,0-2.49,1,4.18,4.18,0,0,0-1,1.06,1.88,1.88,0,0,1,.14-.38c.1-.24.43-.47.42-.71a.2.2,0,0,0,0-.3h0l0,0h0l-.08,0h0a3.4,3.4,0,0,0-.45,0h-.25a3,3,0,0,0-.31,0,5.32,5.32,0,0,0,1.82-2,4,4,0,0,0,.21-2c-.05-.54-.11-1.08-.18-1.61,1.66,2.19,4.69,3.27,7.69,3.27a10.4,10.4,0,0,0,5.61-1.51c2.59-1.67,4-4.63,4.89-7.5a23.68,23.68,0,0,0,.75-3.71,38.76,38.76,0,0,1-.09,9.13,23.5,23.5,0,0,1-.84,3.6,19.64,19.64,0,0,1-1.2,3.51c-.13.26-.27.52-.42.77.21-2-1.67-2.82-3.49-2.82H55.9l-.39-.07a3.21,3.21,0,0,0-.63-.06,5.91,5.91,0,0,0-4.28,2.28,3.07,3.07,0,0,0-.61,1,1.78,1.78,0,0,0-.12.29m-7.94-3.78a4.46,4.46,0,0,0,.54-.75,2.49,2.49,0,0,0,.22-.43,3.44,3.44,0,0,0,.22-.82h0a3.89,3.89,0,0,1-.2,1,2.67,2.67,0,0,1-.78,1"/><path id="path1866" class="cls-7" d="M87.09,122.63a1.22,1.22,0,0,1-.16-.26,1.22,1.22,0,0,0,.16.26m2.87,0a.35.35,0,0,1,.13-.48.36.36,0,0,0-.13.48h0m-3.06-.45h0a.27.27,0,0,1,.16-.2h0l-.16.19h0m3.19,0h0m0,0h0m0,0h0"/><path id="path1868" class="cls-9" d="M87.69,125.34a4.29,4.29,0,0,0-4.18-3.75,1.64,1.64,0,0,0-1.83,2,1.09,1.09,0,0,1,0,.18,4.12,4.12,0,0,0-1.86-2.49,3.78,3.78,0,0,0-2-.48c-.23,0-.47,0-.7,0l-.41-.06a12.54,12.54,0,0,0-1.41-.09,6,6,0,0,0-3.26.8,2.25,2.25,0,0,0-1,1.54c-.1-.2-.2-.4-.29-.61a14.78,14.78,0,0,1-1.23-5.49,32.66,32.66,0,0,1,.8-6.89c.51-3.06,1-6.11,1.81-9.11.18-.69.38-1.37.6-2A35.41,35.41,0,0,0,72.3,110a11.24,11.24,0,0,0,3.58,7.32,9,9,0,0,0,5.67,1.88,9.76,9.76,0,0,0,3-.46,15.84,15.84,0,0,0,6.71-5c-.07.24-.14.48-.2.73-1,2.59-1.57,5.41,0,7.69l.11.08v0a1.75,1.75,0,0,0-.81-.28.73.73,0,0,0-.25,0h0a.35.35,0,0,0-.13.48,2,2,0,0,0,.36.88,1.91,1.91,0,0,1,.05,1.74,3.14,3.14,0,0,0-3.17-3.43h-.14V122h0a.27.27,0,0,0-.16.2h0a.39.39,0,0,0,0,.21,1.22,1.22,0,0,0,.16.26l.08.09a8.63,8.63,0,0,1,.53,1.42,2.85,2.85,0,0,1,0,1.2"/><path id="path1870" class="cls-9" d="M22.26,130.87a8.67,8.67,0,0,1-4.9-1.64,7.46,7.46,0,0,0,3.58.9,8.4,8.4,0,0,0,1.65-.17,7.42,7.42,0,0,0,4.51-3.36,9.26,9.26,0,0,0,1.4-3.22,20.07,20.07,0,0,1,.92-3.42,14.3,14.3,0,0,1,.71,2.66c.14.58.34,1.38,1,1.56a.82.82,0,0,0,.22,0c.77,0,1.59-1,2-1.4a12.68,12.68,0,0,0,2.47-4.19,26.8,26.8,0,0,0,2.08-10.44A19.05,19.05,0,0,0,35.12,99c.16.15.32.31.47.48a23.2,23.2,0,0,1,2.08,16,22.08,22.08,0,0,1-3.37,7.69,16.81,16.81,0,0,1-3.08,3.17c-.94.77-2,1.4-3,2.13a11.37,11.37,0,0,0,1.57-5.75h-.15c-.8,3.25-1.51,6.47-5,7.72a7.16,7.16,0,0,1-2.38.4"/><path id="path1872" class="cls-6" d="M15.29,128.25l0,0,0,0m0-.05h0m0,0h0"/><path id="path1874" class="cls-7" d="M38.61,121.82a2.72,2.72,0,0,1,.51-.8l0,0a2.73,2.73,0,0,0-.44.68l0,.07"/><path id="path1876" class="cls-9" d="M34.3,124.36c.19-.23.37-.47.55-.7a22.6,22.6,0,0,0,3.44-7.73,21.37,21.37,0,0,0-1.69-15.14,20.24,20.24,0,0,1,2.48,6.6c.67,3,0,6.43,1.36,9.28l.27.07c1.41-.83,1.67-2.58,1.67-4.09,0-.28,0-.57,0-.85.1.51.19,1,.28,1.53l0,.09.18,1a11.31,11.31,0,0,1,.16,2.25v0c0,.16-.07.33-.11.49s-.07.22-.11.33l0,.1a2.06,2.06,0,0,1-.17.33,4.48,4.48,0,0,1-.63.82c-.48.38-1,.7-1.49,1.05a8.53,8.53,0,0,0-.73.65l-.45.33,0,0-.1.09.41-.25-.33.39a2.72,2.72,0,0,0-.51.8,3.16,3.16,0,0,0-.22.5A13.78,13.78,0,0,0,35,123.91c-.24.14-.49.29-.73.45"/><path id="path1878" class="cls-10" d="M39,120.88l.1-.09,0,0,.45-.33-.17.19-.41.25m3.43-3a2.06,2.06,0,0,0,.17-.33l0-.1a2.49,2.49,0,0,1-.22.43m.44-1.25v0h0m-.16-2.27-.18-1,0-.09v.09l.06.49.06.49"/><path id="path1880" class="cls-6" d="M111.72,133.33a16.53,16.53,0,0,1-2.65-.2,16.53,16.53,0,0,0,2.65.2c.43,0,.86,0,1.29,0-.43,0-.86,0-1.29,0m1.33,0h0"/><path id="path1882" class="cls-9" d="M111.17,132.67H111c-2.51,0-4.84-.65-6-3.1-1-2.11-.23-4.26.46-6.31.3-.46.59-.92.91-1.36a10,10,0,0,0-.8,5.56c.48,2.92,3.07,4.47,5.74,5.12l.39.09h-.61m-6.68-3.08a28.09,28.09,0,0,1-4.52-5.1,17.48,17.48,0,0,1-2.57-8.1c-.4-5.77,2.64-11.69,6.71-15.62q-1.48,2.49-3.17,4.88c-3,4.24-4.41,9.55-2.47,14.51.4,1.06,2.31,6.6,4.17,6.6a1.34,1.34,0,0,0,1.06-.68c.4-.57.78-1.15,1.16-1.74a7.58,7.58,0,0,0-.49,4.87c0,.13.07.26.12.38m-4.21-3.47c-.79-.39-1.64-.68-2.41-1a26.23,26.23,0,0,0-5.38-1.75c-.25-.38-.55-.74-.84-1.1l-.09-.25v0l0,0a16.3,16.3,0,0,1-.66-2.65,10.79,10.79,0,0,1,.4-3.32c.16-.51.34-1,.51-1.53.36-1,.86-2,1.31-2.93-.09.13-.17.25-.27.37l1-2c1.91-4.14,4.87-7.68,7.43-11.42.82-1.2,1.57-2.43,2.26-3.69a41,41,0,0,0,4.93-13.82c0-.07,0-.13,0-.2.13-.67.26-1.34.36-2,0-.2.07-.39.11-.59a14.35,14.35,0,0,1-.13,2.26c-.27,1.9-.67,3.8-1.11,5.66a54.28,54.28,0,0,1-4.48,11.6.2.2,0,0,0,.18.29.18.18,0,0,0,.16-.1c1.2-2,2.55-3.82,3.73-5.81a28.74,28.74,0,0,0,2.59-6.07,75.7,75.7,0,0,1-2.68,7.61.13.13,0,0,0,.12.17.13.13,0,0,0,.11-.07,32.44,32.44,0,0,0,1.86-4,57.75,57.75,0,0,1-5,10.86h0a20.91,20.91,0,0,0-5.34,6.69c.06-.4.06-.82.12-1.23a9.43,9.43,0,0,1,.56-2.1,11.16,11.16,0,0,1,1.9-3.27l-.13-.11A12,12,0,0,0,99,104a5.79,5.79,0,0,0-.55,3.6l.17.1a18.86,18.86,0,0,0-1.92,8.46,17.54,17.54,0,0,0,2.37,8.22,12.59,12.59,0,0,0,1.17,1.74m-9-12.3a24,24,0,0,1,2-4.56c-.27.56-.53,1.13-.77,1.71-.33.82-.74,1.72-1.13,2.67l-.15.18"/><path id="path1884" class="cls-10" d="M91.28,116a28,28,0,0,1,1.55-4.09c.1-.12.18-.24.27-.37-.45,1-.95,1.91-1.31,2.93-.17.51-.35,1-.51,1.53m-.21-1.43c.06-.25.13-.49.2-.73l.15-.18c-.12.3-.24.6-.35.91"/><path id="path1886" class="cls-9" d="M66.28,113.91c-1.42,0-1.45-3.57-1.56-5-.46-6.09-1.47-14.52-4.07-20.05-1.11-2.36.37-2.74,2.76-2.74,1.1,0,2.39.08,3.72.09h.05c.82,0,1.66,0,2.45-.06s1.56-.06,2.25-.06c2.13,0,3.51.28,2.81,1.69a64.12,64.12,0,0,0-2.85,6.48,86.67,86.67,0,0,0-2.13,9.18c-.47,2.17-.59,8.89-2.73,10.21a1.42,1.42,0,0,1-.7.24m-.73-31.64a20.52,20.52,0,0,1-5.3-.65,12.68,12.68,0,0,1-1.92-.84c-2.81-1.55-5.1-4.17-7.69-6.11-.84-.68-1.69-1.34-2.55-2l-.35-.28h0L47.13,72c-3-2.25-6-4.54-8.25-7.57l-.08.06c.36.54.73,1.06,1.13,1.56-.5-.54-1-1.09-1.44-1.64-2.21-2.59-4.29-5.92-4.68-9.35a10.6,10.6,0,0,0,1.29,3.47c2,3.52,5.39,5.59,8.88,7.37a70.78,70.78,0,0,0,6.53,2.94c2.15.85,4.33,1.6,6.41,2.59a19.56,19.56,0,0,1,4.74,3.12,22,22,0,0,1,1.63,1.72,21.77,21.77,0,0,1,2.29,3.68h0a6.4,6.4,0,0,1-.16-2.26c.09-1.94,1.37-3.76,2.67-5.18a21.9,21.9,0,0,1,6.59-4.65,45.17,45.17,0,0,0,7.71-4.26,13.13,13.13,0,0,0,3.32-3.9c-.2.6-.39,1.19-.57,1.78l-.17.25.06.06.14-.13.1,0,.13-.21a13.91,13.91,0,0,1,1.12-1,17.82,17.82,0,0,1,2-1.27,10.76,10.76,0,0,0,3.15-2.78,12.41,12.41,0,0,0,2.67-6.48,15.07,15.07,0,0,1,.06,1.65c-.13.28-.26.56-.36.84l.11.07c.1-.14.19-.29.29-.44l0,0v-.06A20.7,20.7,0,0,0,96.64,48a19.65,19.65,0,0,0,1.24-5.35c0-.26,0-.53.05-.79a16,16,0,0,1,.08,4c0,.18,0,.35-.07.52a26.11,26.11,0,0,1-3.25,7.16c-1.43,2.2-3,4.29-4.5,6.45a65.6,65.6,0,0,1-3.83,8.23,22.62,22.62,0,0,0,1-2.46l-.08,0c-2.28,4-4.59,8.33-8.64,10.87l.07.1a14.55,14.55,0,0,0,1.45-.9A48.66,48.66,0,0,1,76.33,79h0c-1.19.7-2.37,1.41-3.61,2a20.89,20.89,0,0,1-4.46,1.18c-.84.07-1.69.09-2.53.09h-.17M35.77,58.48a10.45,10.45,0,0,1-1.35-3.36,14.5,14.5,0,0,0,1.35,3.36M95,53.77a24.33,24.33,0,0,0,2.91-7.44A24.23,24.23,0,0,1,95,53.77m.79-5.09.51-1.29c0,.13-.09.26-.14.39-.11.31-.24.61-.37.9"/><path id="path1888" class="cls-9" d="M97.94,46.33h0"/><path id="path1890" class="cls-11" d="M61.51,119.65h0a8.55,8.55,0,0,1,2.42-.31c.56,0,1.11,0,1.65.09-.53-.05-1.08-.09-1.63-.09a8.64,8.64,0,0,0-2.44.31"/><path id="path1892" class="cls-10" d="M69.21,119.63a17.35,17.35,0,0,0-4.19-.87h-.28a7.61,7.61,0,0,0-3.18.61l.06-.33c.37-1.2.64-2.43.9-3.6,1.14-5.21.4-10.94-.84-16.06a78,78,0,0,0-5.44-14.93,45,45,0,0,0-4.87-8.36c1.4,1.22,2.71,2.53,4.16,3.69a15.11,15.11,0,0,0,9.84,3.09h.39A17.44,17.44,0,0,0,71.32,82a22.29,22.29,0,0,0,5.08-2.91l-.07-.1a48.66,48.66,0,0,0,3.87-3.26,20.29,20.29,0,0,0,6.16-7.58,65.6,65.6,0,0,0,3.83-8.23c1.48-2.16,3.07-4.25,4.5-6.45a26.11,26.11,0,0,0,3.25-7.16h0A24.33,24.33,0,0,1,95,53.77h0a60.93,60.93,0,0,0-3.64,7.55.2.2,0,0,0,0,.07.2.2,0,0,0,.21.18.18.18,0,0,0,.16-.1,15.22,15.22,0,0,1,3.69-3.86l-.37.48h0c-1.76,2.24-3.48,4.5-5.16,6.8.09-.33.18-.66.26-1,.41-1.49.67-3,1.18-4.48l-.11,0a20.41,20.41,0,0,0-1.3,3.47c-.36,1.23-.88,2.44-1.21,3.66-1.53,2.13-3,4.28-4.43,6.48a106,106,0,0,0-8.51,16.16,79.25,79.25,0,0,0-5.52,17.43c-.76,4.23-1.91,8.62-1.06,12.92,0,0,0,.08,0,.12m-5.8-33.49c-2.39,0-3.87.38-2.76,2.74,2.6,5.53,3.61,14,4.07,20.05.11,1.41.14,5,1.56,5a1.42,1.42,0,0,0,.7-.24c2.14-1.32,2.26-8,2.73-10.21a86.67,86.67,0,0,1,2.13-9.18,64.12,64.12,0,0,1,2.85-6.48c.7-1.41-.68-1.69-2.81-1.69-.69,0-1.45,0-2.25.06s-1.63.06-2.45.06h-.05c-1.33,0-2.62-.09-3.72-.09"/><path id="path1894" class="cls-12" d="M69.23,119.63h0s0-.08,0-.12l0,.12"/><path id="path1896" class="cls-10" d="M79.52,82.58q2.06-4.11,4.46-8c2.68-4.37,5.63-8.58,8.61-12.75-.79,1.28-1.58,2.57-2.45,3.8C87.53,69.27,85,73,82.74,76.85c-1.1,1.9-2.19,3.8-3.22,5.73m-11.27-.4A20.89,20.89,0,0,0,72.71,81c-.4.19-.81.36-1.23.52a11.53,11.53,0,0,1-3.23.66m-8-.56-.11,0a13.66,13.66,0,0,1-4.94-2.9c-1.27-1.06-2.45-2.23-3.71-3.31l-.85-.71c2.59,1.94,4.88,4.56,7.69,6.11a12.68,12.68,0,0,0,1.92.84"/><path id="path1898" class="cls-13" d="M120.21,77.17a5.45,5.45,0,0,0-2.48-.56,5.47,5.47,0,0,1,2.48.56l.05-.09-.05.09"/><path id="path1900" class="cls-14" d="M119.08,76.06h0m0,0a5.47,5.47,0,0,0-1.46-.65,4.07,4.07,0,0,0-1.28.36h-.51a10.88,10.88,0,0,0-2.61.21,3.37,3.37,0,0,1,.6-.78,4.1,4.1,0,0,0-1.63.48h0A5.84,5.84,0,0,1,115,75.1l.81,0a6.63,6.63,0,0,1,3.22.93m-7.44-1.57c.08-1.88.06-3.77,0-5.65a65.63,65.63,0,0,0-.38-10.1c.33,2.42.62,4.84.81,7.27,0-.56-.09-1.11-.14-1.67a54.52,54.52,0,0,1-.27,10.15"/><path id="path1902" class="cls-15" d="M120.21,77.17a5.47,5.47,0,0,0-2.48-.56h0a6.12,6.12,0,0,0-1.48-.35,5.48,5.48,0,0,1,1.43-.2,4.36,4.36,0,0,1,.51,0,8.24,8.24,0,0,0-1.86-.33,4.06,4.06,0,0,1,1.29-.36,5.56,5.56,0,0,1,1.45.65h0a4.71,4.71,0,0,1,.92.76l0,0,.24.22-.05.09"/><path id="path1904" class="cls-16" d="M109.27,89.68a44.35,44.35,0,0,0,2.25-10.93,51,51,0,0,1-1.44,6.48l-.22.7a42.68,42.68,0,0,0,1.2-5.48,54.29,54.29,0,0,0,.56-6,54.52,54.52,0,0,0,.27-10.15c0,.56.1,1.11.14,1.67l0,.6c.12,1.75.19,3.52.19,5.29,0,1.26,0,2.52-.1,3.77h0a4.1,4.1,0,0,1,1.63-.48,3.37,3.37,0,0,0-.6.78,2.93,2.93,0,0,0-1,.44l-.11,0a44.44,44.44,0,0,1-2.84,13.23"/><path id="path1906" class="cls-17" d="M107.3,93.71a.13.13,0,0,1-.12-.17,75.7,75.7,0,0,0,2.68-7.61l.22-.7a51,51,0,0,0,1.44-6.48,44.35,44.35,0,0,1-2.25,10.93,32.44,32.44,0,0,1-1.86,4,.13.13,0,0,1-.11.07"/><path id="path1908" class="cls-16" d="M113,133.29h0"/><path id="path1910" class="cls-13" d="M126.94,100.91h0m0,0,0-.05v-.06l0,.11m0-.13v0"/><path id="path1912" class="cls-14" d="M143.51,115.16a1.94,1.94,0,0,0,.41-1.23,2.42,2.42,0,0,0-1.35-2.72l-.11.23a.37.37,0,0,1-.05.11,2.15,2.15,0,0,0,.15-.77.17.17,0,0,1,.19-.19h0a6,6,0,0,0,.13-.74,5.26,5.26,0,0,1-1.37,2.3,3.58,3.58,0,0,0,.37-.64,4.54,4.54,0,0,0,.46-2.32,2.2,2.2,0,0,0-1.47-1.84,5,5,0,0,1-.95,1.25,4.86,4.86,0,0,0,1.05-1.74l.18-.13a5,5,0,0,0,.16-.64,5.85,5.85,0,0,1-.74,1.34,3.15,3.15,0,0,1-.91.83,3.23,3.23,0,0,0,.43-.58,4.27,4.27,0,0,0,.55-.89,4.35,4.35,0,0,0,.24-.75,1.45,1.45,0,0,0,0-.3,2.82,2.82,0,0,0,0-.87,2.29,2.29,0,0,0-2.29-2.07h-.1c.08-.19.17-.4.25-.56h0c1.78,0,2.68,1.54,2.67,3.14a4.46,4.46,0,0,1-.25,1.45h0a2.76,2.76,0,0,1,1.7,2,3.38,3.38,0,0,1,.08.72,4.51,4.51,0,0,1-.16,1.16h0a3.15,3.15,0,0,1,1.78,2.78,3.56,3.56,0,0,1-.41,1.61,3.65,3.65,0,0,0,.18-.41,2.93,2.93,0,0,1-.82.52m-4.86-12.93.12-.34a.19.19,0,0,1,.1-.34,6.06,6.06,0,0,0,.12-2.74,3,3,0,0,1-.15.59,2,2,0,0,0-.21-.47l-.19,0a3.2,3.2,0,0,0-.38-.92,3.33,3.33,0,0,0-3-1.5,7.56,7.56,0,0,0-3.81,1.17,7.92,7.92,0,0,0-2.89,3.17,5.07,5.07,0,0,1,.41-1.42c.06-.13.13-.24.19-.36a9.43,9.43,0,0,0-.56.84,7.87,7.87,0,0,1,3.39-3.16,8.27,8.27,0,0,1,3.41-.81,3.59,3.59,0,0,1,3.36,1.72,4.59,4.59,0,0,1,.53,2.21,7,7,0,0,1-.45,2.38M127,100.82c.14-.52.25-1,.34-1.57-.1.17-.22.33-.33.49.19-.53.35-1.1.49-1.65a16.47,16.47,0,0,1-.48,2.63v.1"/><path id="path1914" class="cls-18" d="M138.5,100.22a4.41,4.41,0,0,0-.06-1.31l.19,0a2,2,0,0,1,.21.47,4.89,4.89,0,0,1-.34.82"/><path id="path1916" class="cls-18" d="M143.46,115.18c.07-.12.13-.24.19-.37a5.49,5.49,0,0,0,.27-.88,1.94,1.94,0,0,1-.41,1.23l0,0"/><path id="path1918" class="cls-18" d="M140.11,107.68h0a5.57,5.57,0,0,0,.76-1.93,1.45,1.45,0,0,1,0,.3,4.35,4.35,0,0,1-.24.75,4.27,4.27,0,0,1-.55.89"/><path id="path1920" class="cls-19" d="M126.9,101a1.42,1.42,0,0,1,.07-.22l0,.05v0h0s0,.08,0,.13h0"/><path id="path1922" class="cls-16" d="M113.06,133.29a24.53,24.53,0,0,0,2.89-.36c-.38,0-.77,0-1.15,0a14.52,14.52,0,0,1-3-.29,25,25,0,0,0,6.37-.81c.92-.26,1.82-.57,2.7-.91,1.07-.49,2.15-.95,3.24-1.4l.53-.25h0c.64-.27,1.28-.52,1.92-.78a41,41,0,0,0,7.06-3.07,16.6,16.6,0,0,0,4.74-4.16c1.31-1.87,2.06-4.68.42-6.59l.13-.12a3.39,3.39,0,0,1,1.22,2.15,4.13,4.13,0,0,0,3.13-1.31l.23-.27a2.93,2.93,0,0,0,.82-.52,3.65,3.65,0,0,1-.18.41h0a3.84,3.84,0,0,1-3.21,2.11,2.64,2.64,0,0,1-.74-.1h0c0,.2,0,.41,0,.62a6,6,0,0,1-.52,2.43,12.83,12.83,0,0,1-4.57,5.07,27.54,27.54,0,0,1-7.33,3.47q-2.49.82-5,1.73a23.52,23.52,0,0,1-5.93,2.35,26.51,26.51,0,0,1-3.87.56m26-19.82-.58,0v-.14h0a3.62,3.62,0,0,0,3-1.16,5.26,5.26,0,0,0,1.37-2.3,6,6,0,0,1-.13.74h0a.17.17,0,0,0-.19.19,2.15,2.15,0,0,1-.15.77,3.48,3.48,0,0,1-3.36,1.92m-2.53-3.57a6.42,6.42,0,0,1-1.05-.1v-.11c1.53-.07,3.16-.28,4.2-1.43a3.15,3.15,0,0,0,.91-.83,5.85,5.85,0,0,0,.74-1.34,5,5,0,0,1-.16.64l-.18.13a4.86,4.86,0,0,1-1.05,1.74,4.91,4.91,0,0,1-3.42,1.3m-1.8-.46c-1.74-1.77-3.6-3.54-6.17-3.92l0-.09a8.23,8.23,0,0,1,4,1.32,10.59,10.59,0,0,0,4.94-3c.84-.93,1.79-3,1.36-4.36a3,3,0,0,0,.15-.59,6.06,6.06,0,0,1-.12,2.74.19.19,0,0,0-.1.34l-.12.34h.09c-.08.16-.17.37-.25.56h-.06c-.11.24-.23.48-.35.7a6.84,6.84,0,0,1-5.12,3.56,7.49,7.49,0,0,1,1.93,2.23l-.17.15m-13.16-2.86,0,0a13.42,13.42,0,0,1,2.73-3.53c.59-.47,1.2-.92,1.83-1.37l.05-.25a6.54,6.54,0,0,0,.86-1.64c.11-.16.23-.32.33-.49-.09.53-.2,1-.34,1.57a1.42,1.42,0,0,0-.07.22h0c.46-.32.92-.63,1.39-.93l.12-.22a9.43,9.43,0,0,1,.56-.84c-.06.12-.13.23-.19.36a5.07,5.07,0,0,0-.41,1.42,15.34,15.34,0,0,0-1.21,3.42h0a10.79,10.79,0,0,1,.68-3.07c-.91.79-2,1.38-3,2.06a21.46,21.46,0,0,0-3.25,3.35"/><path id="path1924" class="cls-20" d="M136.47,104.71a6.42,6.42,0,0,0,1.05-1.46,8.85,8.85,0,0,0,1-3,4.89,4.89,0,0,0,.34-.82c.43,1.39-.52,3.43-1.36,4.36a7.65,7.65,0,0,1-1,.95"/><path id="path1926" class="cls-20" d="M143.28,115.43a2.27,2.27,0,0,0,.18-.25l0,0-.23.27"/><path id="path1928" class="cls-14" d="M91.72,126.42a2.1,2.1,0,0,0,.65-1.67,7.19,7.19,0,0,0-1.19-2.4l.14.08h0l.18.08h0a1.81,1.81,0,0,1,.29.19h0a2.69,2.69,0,0,1,.79,1.06h0a2.87,2.87,0,0,1,.21.73c.09.66-.34,1.88-1.09,1.91m-2.11-.56a2,2,0,0,0,.23-.73A2.89,2.89,0,0,0,87.1,122a.68.68,0,0,1,.26,0h.42l0,0a2,2,0,0,1,.7.34,2.73,2.73,0,0,1,1.31,1.22,2.11,2.11,0,0,1,.35.76,1.54,1.54,0,0,1-.58,1.58M87.12,125a3.39,3.39,0,0,0-.63-1.71,3.61,3.61,0,0,0-2.92-1.55v-.07h0a2.33,2.33,0,0,1,.82.15l0,0a3.12,3.12,0,0,1,2.71,2.42,1.48,1.48,0,0,1-.07.73m-5.87-.32a2,2,0,0,0,0-.23C81,121.94,78.86,121,76.66,121a9.36,9.36,0,0,0-1.18.08v-.06c.4-.07.82-.15,1.24-.21a4.24,4.24,0,0,1,.54.06l.37,0h.07a4.46,4.46,0,0,1,1.93.43A3.58,3.58,0,0,1,81.36,123h0l.1.25v0a1.36,1.36,0,0,1-.22,1.44"/><path id="path1930" class="cls-16" d="M83.88,128.33a12.37,12.37,0,0,1-3.95-.79,2.27,2.27,0,0,1-.39.16,5.14,5.14,0,0,1-1.63.26,6.38,6.38,0,0,1-2.15-.39A7.38,7.38,0,0,1,73,126.34a10.59,10.59,0,0,1-3.67-6.07,12.54,12.54,0,0,0,1.88,4.24,3.12,3.12,0,0,1-.2-1.52,7.5,7.5,0,0,0,3.39,3.45,7.85,7.85,0,0,0,1.53.5,6.21,6.21,0,0,0,.75.31,7.06,7.06,0,0,0,1.28.14,3.51,3.51,0,0,0,1.11-.16,2.76,2.76,0,0,0,2.14-2.52,1.36,1.36,0,0,0,.22-1.44,2.52,2.52,0,0,1,.23.65h0c0-.06,0-.12,0-.18a3.47,3.47,0,0,1,.11,1,3.25,3.25,0,0,1-1.2,2.35,10.81,10.81,0,0,0,3.3.63,3.41,3.41,0,0,0,2.69-1,2.28,2.28,0,0,0,.53-1.69,1.48,1.48,0,0,0,.07-.73,3.12,3.12,0,0,0-2.71-2.42l0,0a2.33,2.33,0,0,0-.82-.15h0l.36,0a3.44,3.44,0,0,1,.46,0l.26.08c1.9.58,3.27,2.23,2.92,3.93,0-.12.08-.24.11-.37a3.06,3.06,0,0,1-.39,1.36,3,3,0,0,1-.66.79,3.42,3.42,0,0,0,3-1.63,1.54,1.54,0,0,0,.58-1.58,2.11,2.11,0,0,0-.35-.76,2.73,2.73,0,0,0-1.31-1.22,2,2,0,0,0-.7-.34l0,0h-.42a.68.68,0,0,0-.26,0h0a.43.43,0,0,1,.33-.11,3.59,3.59,0,0,1,1.33.41,3.12,3.12,0,0,1,1.59,3.09l.05-.11a2.17,2.17,0,0,1,0,.25,3.06,3.06,0,0,1-1.09,1.68,4,4,0,0,0,.68.07,2.18,2.18,0,0,0,1.33-.41,2.55,2.55,0,0,0,.47-.4c.75,0,1.18-1.25,1.09-1.91a2.87,2.87,0,0,0-.21-.73l.18.07,0,0h0a2.44,2.44,0,0,1,.31,1.15,2.36,2.36,0,0,1-.31,1.14,3.3,3.3,0,0,1-2.93,1.79,3.54,3.54,0,0,1-1.22-.22h0l-.1.06a3.35,3.35,0,0,1-1.52.46,1.14,1.14,0,0,1-.79-.26l0-.07a4.73,4.73,0,0,1-2.24.49m21-4c.24-.63.52-1.26.8-1.91l.14.07c-.09.25-.17.5-.26.76l-.68,1.08M81.36,123a3.58,3.58,0,0,0-1.74-1.67A3.49,3.49,0,0,1,81.36,123m10.15-.48-.18-.08.18.08m.17-.17a4.37,4.37,0,0,1-.38-.63,6.32,6.32,0,0,1-.55-3.43v-.05c0,.36.07.71.13,1.06a7,7,0,0,0,.66,2.65l0,0v.15a.39.39,0,0,0,.08.1l0,.1m-14.43-1.44a4.24,4.24,0,0,0-.54-.06l.44,0,.47.09-.37,0m-7.88-.64a13.7,13.7,0,0,1-1.85-.5,16,16,0,0,0,1.77.49h0a.53.53,0,0,1,0-.13.69.69,0,0,1,0,.13h.07m23.95-11a69.62,69.62,0,0,1,6.29-9.7,48.74,48.74,0,0,0,3.89-6.06,46.76,46.76,0,0,0,2.74-6.73,57,57,0,0,0,2.88-15.68h.08v.14l0,.25a1.08,1.08,0,0,0,.07.52,34.9,34.9,0,0,1-.44,6.68c-.13.68-.25,1.36-.36,2-.39,1.89-.88,3.74-1.44,5.54a46.51,46.51,0,0,1-3.53,8.48c-.22.37-.44.73-.67,1.08-2.91,4.56-6.69,8.51-9.37,13.24l-.12.21m10.79-8.49.13-.23.05.06-.18.17M72.74,98.84l.18-.94c.44-1.17.91-2.34,1.4-3.5.76-2.21,1.61-4.39,2.57-6.52.81-1.81,1.7-3.57,2.63-5.3q-2.28,4.53-4.17,9.26c-.93,2.3-1.86,4.63-2.61,7"/><path id="path1932" class="cls-17" d="M87.58,125.71c.35-1.7-1-3.35-2.92-3.93l-.26-.08a3.79,3.79,0,0,1,3.29,3.64c0,.13-.07.25-.11.37m2.74-.37a3.12,3.12,0,0,0-1.59-3.09,3.59,3.59,0,0,0-1.33-.41.43.43,0,0,0-.33.11h0v-.15h.14a3.14,3.14,0,0,1,3.17,3.43l-.05.11"/><path id="path1934" class="cls-17" d="M71.25,124.51a12.54,12.54,0,0,1-1.88-4.24H69.3a.69.69,0,0,0,0-.13c0-.48,0-1,0-1.45a62.38,62.38,0,0,1,.88-9,57.86,57.86,0,0,1,2.62-11.33l.18-.48-.18.94c-.22.68-.42,1.36-.6,2-.79,3-1.3,6-1.81,9.11a32.66,32.66,0,0,0-.8,6.89,14.78,14.78,0,0,0,1.23,5.49c.09.21.19.41.29.61a3.12,3.12,0,0,0,.2,1.52"/><path id="path1936" class="cls-16" d="M81.47,123.27v0l-.1-.25h0l.11.27m-1.85-1.94a4.46,4.46,0,0,0-1.93-.43h0a4.51,4.51,0,0,1,1.94.44"/><path id="path1938" class="cls-17" d="M81.7,123.92a2.52,2.52,0,0,0-.23-.65l-.11-.27h0a3.49,3.49,0,0,0-1.74-1.67,4.51,4.51,0,0,0-1.94-.44h-.06l-.47-.09c.23,0,.47,0,.7,0a3.78,3.78,0,0,1,2,.48,4.12,4.12,0,0,1,1.86,2.49c0,.06,0,.12,0,.18"/><path id="path1940" class="cls-16" d="M91.81,122.71a1.81,1.81,0,0,0-.29-.19,1.81,1.81,0,0,1,.29.19h0m-.29-.19h0"/><path id="path1942" class="cls-17" d="M91.81,122.71a1.81,1.81,0,0,0-.29-.19h0l-.18-.08h0l-.14-.08v0l-.11-.08c-1.56-2.28-1-5.1,0-7.69a11.38,11.38,0,0,0-.35,2.6c0,.37,0,.73,0,1.09v.05a6.32,6.32,0,0,0,.55,3.43,4.37,4.37,0,0,0,.38.63l.13.36"/><path id="path1944" class="cls-16" d="M92.6,123.78h0a2.69,2.69,0,0,0-.79-1.06h0a2.54,2.54,0,0,1,.29.28h0a2.6,2.6,0,0,1,.51.8"/><path id="path1946" class="cls-17" d="M111.72,133.33a16.53,16.53,0,0,1-2.65-.2,5.66,5.66,0,0,1-4.26-2.81,34.4,34.4,0,0,1-3.22-2.74c-1.41-.77-2.84-1.42-4.32-2s-3.07-1-4.52-1.73h0l0,0-.18-.07a2.6,2.6,0,0,0-.51-.8c-.13-.22-.28-.43-.41-.63l0-.1c.29.36.59.72.84,1.1a26.23,26.23,0,0,1,5.38,1.75c.77.34,1.62.63,2.41,1a12.59,12.59,0,0,1-1.17-1.74,17.66,17.66,0,0,1-2.37-8.22,18.86,18.86,0,0,1,1.92-8.46l-.17-.1A5.79,5.79,0,0,1,99,104a12,12,0,0,1,2.3-3.49l.13.11a11.16,11.16,0,0,0-1.9,3.27A9.43,9.43,0,0,0,99,106c-.06.41-.06.83-.12,1.23a20.91,20.91,0,0,1,5.34-6.69h0l-.13.23C100,104.7,97,110.62,97.4,116.39a17.48,17.48,0,0,0,2.57,8.1,28.09,28.09,0,0,0,4.52,5.1c0-.12-.08-.25-.12-.38a7.58,7.58,0,0,1,.49-4.87l.68-1.08c-.69,2-1.41,4.2-.46,6.31,1.12,2.45,3.45,3.09,6,3.1h.74a14.52,14.52,0,0,0,3,.29c.38,0,.77,0,1.15,0a24.63,24.63,0,0,1-2.88.36H113c-.43,0-.86,0-1.28,0M91.56,122l0,0,0,0v0m-.68-2.7c-.06-.35-.1-.7-.13-1.06a14.28,14.28,0,0,1,.53-2.26,10.79,10.79,0,0,0-.4,3.32m.54-5.66c.39-1,.8-1.85,1.13-2.67.24-.58.5-1.15.77-1.71l.12-.21c2.68-4.73,6.46-8.68,9.37-13.24.23-.35.45-.71.67-1.08-.69,1.26-1.44,2.49-2.26,3.69-2.56,3.74-5.52,7.28-7.43,11.42l-1,2v0c-.44.57-.91,1.16-1.4,1.73m17-32.93c.11-.66.23-1.34.36-2-.1.68-.23,1.35-.36,2"/><path id="path1948" class="cls-17" d="M92.1,123a2.54,2.54,0,0,0-.29-.28h0a1.79,1.79,0,0,1,.28.27h0"/><path id="path1950" class="cls-21" d="M92.09,123a1.79,1.79,0,0,0-.28-.27l-.13-.36c.13.2.28.41.41.63m-1.34-4.74c0-.36,0-.72,0-1.09a11.38,11.38,0,0,1,.35-2.6c.11-.31.23-.61.35-.91.49-.57,1-1.16,1.4-1.73v0A28,28,0,0,0,91.28,116a14.28,14.28,0,0,0-.53,2.26"/><path id="path1952" class="cls-14" d="M1.22,110.77a5.75,5.75,0,0,0,1.27-.14,5.77,5.77,0,0,1-1.28.14m.34-.49a1.28,1.28,0,0,1-.35.24,1.36,1.36,0,0,1-.53.11M.29,105a4.36,4.36,0,0,0,.2.53,3.88,3.88,0,0,0,.94,1.56l.24.16.15.13a2.38,2.38,0,0,1-1.26-.78M.4,101.06a3.45,3.45,0,0,1,2.23-1,1.84,1.84,0,0,1,.57.09l-.23,0c-.08.18-.15.37-.22.56H2.62a2.32,2.32,0,0,0-2.16,1.45m4.84,1.85c-1.61-.56-2-2.81-1.92-4.67l0,0,0,.12a4.44,4.44,0,0,1,1.33-2.17,3.2,3.2,0,0,1,1.91-1,1.61,1.61,0,0,1,.48.08l-.24-.06a5.58,5.58,0,0,0-.18.58H6.55a3.29,3.29,0,0,0-2.07,1.39,4.1,4.1,0,0,0-.58,3.69h0a3.74,3.74,0,0,0,.3.81,2.67,2.67,0,0,0,1.1,1.18m4.58-2.64a3.51,3.51,0,0,1-.92-.78,6.22,6.22,0,0,0,.92.78M3.2,100.1a5,5,0,0,1,.08-.54,5,5,0,0,0-.08.54m.08-.55h0m0-.13h0m4.26-1.69c0-.14-.07-.27-.1-.41a6.67,6.67,0,0,1,.29-2.83A4.31,4.31,0,0,0,7,96.32a3.87,3.87,0,0,1,3-3.34l.54-.1c.74.11,1.47.18,2.21.25a6.76,6.76,0,0,1,1.37.63c-.45-.17-.92-.32-1.39-.45A7.53,7.53,0,0,1,14,94.38a5.82,5.82,0,0,0-2.89-.8A3.24,3.24,0,0,0,8,95.26a4.37,4.37,0,0,0-.45,2.47"/><path id="path1954" class="cls-18" d="M5.67,104a2.22,2.22,0,0,1-.37-.09,2.67,2.67,0,0,1-1.1-1.18,3.74,3.74,0,0,1-.3-.81h0A3.49,3.49,0,0,0,5.67,104"/><path id="path1958" class="cls-18" d="M1.67,107.24l-.24-.16a3.88,3.88,0,0,1-.94-1.56,5.34,5.34,0,0,0,1.18,1.72"/><path id="path1960" class="cls-16" d="M.67,110.63a1.36,1.36,0,0,0,.53-.11,1.28,1.28,0,0,0,.35-.24H2.61a4.32,4.32,0,0,1,.39-.73l.1.06a3.88,3.88,0,0,0-.27.79l0,.11c-.72,3.5,3.33,6.8,5.67,8.77a22,22,0,0,1,3.58,3.64c1,1.32,1.81,2.74,2.84,4a12.17,12.17,0,0,0,2.46,2.29m0,0-.31-.18a29.65,29.65,0,0,1-2.63-1.85,11.69,11.69,0,0,0,.78,1c-1.3-1.43-2.16-3.18-3.31-4.73a27.12,27.12,0,0,0-4.71-4.56c-2-1.62-4.86-4.34-4.86-7.12a3.63,3.63,0,0,1,.17-1.12h0a5.75,5.75,0,0,1-1.27.14m2.2-1.68-.07,0a8.56,8.56,0,0,1,.42-.79,1.17,1.17,0,0,1-.53.11,2.91,2.91,0,0,1-1.7-.73,5,5,0,0,1-1-1,2.38,2.38,0,0,0,1.26.78,2.43,2.43,0,0,0,1.57.66,2,2,0,0,0,.58-.09,11.22,11.22,0,0,1,3.19-3.25,2,2,0,0,1-.42,0,3.47,3.47,0,0,1-2.35-1.06,4.21,4.21,0,0,1-1.21-3l-.43,0c.07-.19.14-.38.22-.56l.23,0h0a5,5,0,0,1,.08-.54h0l0-.12h0l0-.12,0,0c-.06,1.86.31,4.11,1.92,4.67a1.94,1.94,0,0,0,.42.17,1,1,0,0,0,.25.06,4.09,4.09,0,0,0,1.47.26H7.5l.06,0a13.93,13.93,0,0,1,3.84-1.91,5.31,5.31,0,0,1-3.16-1.86A5.71,5.71,0,0,1,7,96.93l-.09,0a.72.72,0,0,0-.28-.07,5.58,5.58,0,0,1,.18-.58l.24.06H7a4.31,4.31,0,0,1,.73-1.83,6.67,6.67,0,0,0-.29,2.83c0,.14.06.27.1.41a4.2,4.2,0,0,0,.71,1.93,5.8,5.8,0,0,0,.67.83,3.51,3.51,0,0,0,.92.78,4.22,4.22,0,0,0,2.34.77,3.15,3.15,0,0,0,.44,0,7.21,7.21,0,0,0,4.19-2.48l.12.11c-1,1.24-2.32,2.63-4,2.9l-.07.06c-3.6,1.48-7.29,3.1-9.49,6.49m19.25-2.77a17.5,17.5,0,0,0-2-4,25.36,25.36,0,0,0-1.54-2.38,19.58,19.58,0,0,0-5.05-5.48.57.57,0,0,0-.13-.08,7.53,7.53,0,0,0-1.19-1.07c.47.13.94.28,1.39.45a17.22,17.22,0,0,1,4.53,4.47,20.68,20.68,0,0,1,3.4,5.59,15.31,15.31,0,0,1,.56,2.5"/><path id="path1962" class="cls-20" d="M6,104.14a1,1,0,0,1-.25-.06,1.94,1.94,0,0,1-.42-.17,2.22,2.22,0,0,0,.37.09l.3.14"/><path id="path1964" class="cls-16" d="M15.23,128.19l0,0,0,0"/><path id="path1966" class="cls-14" d="M45.86,124.21a3,3,0,0,1-.28-2.37l0,0h0a3.62,3.62,0,0,1,2.77-2.15,7.37,7.37,0,0,1,.78-.08l0,.12a5.4,5.4,0,0,0-2.76,1.24,3.46,3.46,0,0,0-.66,2.91c0,.13.06.26.1.38m-6.77-.07a1.2,1.2,0,0,1-.5-.66,2.4,2.4,0,0,1-.13-1.07v0a2.28,2.28,0,0,1,.18-.63,4.93,4.93,0,0,1,.44-.68,3.56,3.56,0,0,1,.87-.71h0a4.08,4.08,0,0,1,1.46-.53,6.64,6.64,0,0,0-2.07,2,2.59,2.59,0,0,0-.26,2.26m3.06,0a2,2,0,0,1-.28-2.12l.08-.15h0l.06-.1a3.3,3.3,0,0,1,1.06-1.53h0a5.19,5.19,0,0,1,.89-.52l.06.12c-1.38.92-2.46,2.33-1.95,4.1l.06.21m8.24-.7a2.7,2.7,0,0,1,.83-2.7,6.48,6.48,0,0,1,.62-.54h0A5.5,5.5,0,0,1,55.09,119l.45,0a2.91,2.91,0,0,1,.9.35l0,.08a3.9,3.9,0,0,0-1.33-.24,4.74,4.74,0,0,0-3.45,1.65,5.17,5.17,0,0,0-1.23,2.61"/><path id="path1968" class="cls-16" d="M49.1,126.86a4.3,4.3,0,0,1-2.65-.81l0,0a6.79,6.79,0,0,1-2,.38,3.16,3.16,0,0,1-1.45-.33,2.31,2.31,0,0,1-.56-.41l-.13.07a4.77,4.77,0,0,1-.95.1,3.12,3.12,0,0,1-2.89-1.44,2.3,2.3,0,0,1-.25-1.1v-.19a6.49,6.49,0,0,1,.26-.74,2.4,2.4,0,0,0,.13,1.07,1.2,1.2,0,0,0,.5.66,1.57,1.57,0,0,0,.73.68,3.67,3.67,0,0,0,1.6.37,5.46,5.46,0,0,0,.57,0,3.76,3.76,0,0,1-.41-1.05,3.49,3.49,0,0,1,.47-2.82,2.94,2.94,0,0,0-.1.58l-.08.15a2,2,0,0,0,.28,2.12,2.23,2.23,0,0,0,2.31,1.6,5.92,5.92,0,0,0,1.46-.21,3.15,3.15,0,0,1-.64-1.42,4.15,4.15,0,0,1,.34-2.69,1.64,1.64,0,0,0,0,.22v.16l0,0a3,3,0,0,0,.28,2.37,3,3,0,0,0,3.06,2,5.81,5.81,0,0,0,2-.36,4.26,4.26,0,0,1-.8-.88,2.69,2.69,0,0,1-.22-2.56s0,.06,0,.09a2.38,2.38,0,0,1,.11-.38,4.7,4.7,0,0,1,.61-1,5.83,5.83,0,0,1,1.24-1,6.48,6.48,0,0,0-.62.54,2.7,2.7,0,0,0-.83,2.7,1.82,1.82,0,0,0,1.11,2.06,5.74,5.74,0,0,0,2.25.48c2.5,0,4.55-1.83,5.91-4.11,0,.13,0,.26-.07.4a7.59,7.59,0,0,1-1.43,2.91l.34-.28a7.68,7.68,0,0,1-4.84,1.93,4.43,4.43,0,0,1-2.15-.51l-.13.1a6.06,6.06,0,0,1-2.28.45"/><path id="path1970" class="cls-16" d="M60.68,121.49c.14-.32.28-.66.41-1v-.13c.2-.74.44-1.47.67-2.2,0,.28-.09.56-.13.85l-.12.36.06,0c0,.1,0,.19-.05.29l-.11,0c-.17.49-.44,1.18-.72,1.81m-19.56-2.1a9.17,9.17,0,0,0,.72-.65l.08-.07a6.12,6.12,0,0,1-.8.72"/><path id="path1972" class="cls-13" d="M19.71,81.56l.19-.11-.19.11"/><path id="path1974" class="cls-14" d="M28.55,83.6c-.45-.76-.89-1.52-1.33-2.29s-1-1.8-1.5-2.72l.14.39c-.41-1.08-.77-2.18-1.08-3.32a53.41,53.41,0,0,1-1.62-13.81c0-1.35,0-2.69.11-4a62.66,62.66,0,0,1,1.47-10.59c0,.22-.07.44-.1.67A87.24,87.24,0,0,0,23.2,62.08a39.4,39.4,0,0,0,2.27,13.53,43.81,43.81,0,0,0,3.08,8m-8.2-3.44A6.15,6.15,0,0,1,24.23,79a13.51,13.51,0,0,1,1.67.11h0c.07.19.12.39.18.58-.73-.06-1.46-.19-2.19-.19a4,4,0,0,0-1.41-.25H22.2a5.53,5.53,0,0,0-1.85.92"/><path id="path1976" class="cls-22" d="M19.7,81.56h0l.19-.11h0l-.2.11"/><path id="path1978" class="cls-15" d="M19.27,81.84l.43-.28.2-.11h0A11,11,0,0,1,22,80.58a2.41,2.41,0,0,1,.72-.09h.05a3.29,3.29,0,0,0-.68-.26A6,6,0,0,0,21,80.07l-.6.18,0-.09h0a5.53,5.53,0,0,1,1.85-.92h.26a4,4,0,0,1,1.41.25h0a4.24,4.24,0,0,0-.71,0,10.8,10.8,0,0,0-1.7.41h.12a2.29,2.29,0,0,1,1.77.58l.54,0v.09l-.45.06-.11,0-.06,0q-.3,0-.6.09a9.41,9.41,0,0,0-3.36,1"/><path id="path1980" class="cls-16" d="M43.27,114.3c-.11-.16-.22-.31-.32-.47a17.72,17.72,0,0,0-.33-1.82,18.27,18.27,0,0,0-.52-1.89,12.14,12.14,0,0,1,.24,1.68A30.28,30.28,0,0,0,41,106.66a61.94,61.94,0,0,0-4.08-8c-1.48-2.65-3-5.3-4.66-7.83a61.15,61.15,0,0,1-6.09-11.16h-.07c-.06-.19-.11-.39-.18-.58h0a.76.76,0,0,0,0-.11l-.14-.39c.47.92,1,1.82,1.5,2.72s.88,1.53,1.33,2.29c.17.35.35.69.53,1,1.38,2.57,3.09,4.9,4.63,7.37s3.1,5.24,4.58,7.9a41.23,41.23,0,0,1,3.54,7.48,23.69,23.69,0,0,1,.7,3c.15.6.29,1.2.4,1.81s.24,1.42.34,2.14m18.94-9.45a41.5,41.5,0,0,0-1.3-6.72,85.22,85.22,0,0,0-5.39-13.78,50.32,50.32,0,0,0-3.69-6.46c-.95-1.37-2-2.65-3-3.93l-2-1.56A37.37,37.37,0,0,1,39.93,66a29.36,29.36,0,0,0,3.54,3.34c.89.69,1.8,1.35,2.67,2.05l.17,0a13.38,13.38,0,0,1,2.5,2.06l0,0c2.69,2.74,4.47,6.48,6.2,9.78a69.08,69.08,0,0,1,6.26,15.49c.41,1.67.79,3.38,1.07,5.12,0,.33-.07.67-.11,1M36.6,100.79a10.75,10.75,0,0,0-1-1.3c-.19-.38-.39-.75-.6-1.12l.11-.07a22.84,22.84,0,0,1,1.5,2.49"/><path id="path1982" class="cls-17" d="M58.16,125.17a7.59,7.59,0,0,0,1.43-2.91c0-.14,0-.27.07-.4s.29-.51.42-.77a19.64,19.64,0,0,0,1.2-3.51,23.5,23.5,0,0,0,.84-3.6,38.76,38.76,0,0,0,.09-9.13c0-.33.08-.67.11-1a37.29,37.29,0,0,1,.53,6,24.07,24.07,0,0,1-.59,5.42c-.22,1-.36,2-.51,3-.23.73-.47,1.46-.67,2.2v.13c-.13.32-.27.66-.41,1a11.35,11.35,0,0,1-.62,1.22,11.64,11.64,0,0,1-1.33,2,2.39,2.39,0,0,1-.23.22l-.34.28m-8.28-2.63s0-.06,0-.09a1.78,1.78,0,0,1,.12-.29,2.38,2.38,0,0,0-.11.38"/><path id="path1984" class="cls-16" d="M42,121.86h0l.06-.1a3.3,3.3,0,0,1,1.06-1.53h0A3.3,3.3,0,0,0,42,121.76l-.06.1"/><path id="path1986" class="cls-17" d="M42,121.86a2.94,2.94,0,0,1,.1-.58,4.18,4.18,0,0,1,1-1.06h0A3.3,3.3,0,0,0,42,121.76l-.06.1"/><path id="path1988" class="cls-16" d="M45.6,121.79h0a3.6,3.6,0,0,1,2.75-2.15h0a3.62,3.62,0,0,0-2.77,2.15"/><path id="path1990" class="cls-17" d="M45.6,121.79v-.16a1.64,1.64,0,0,1,0-.22,3.35,3.35,0,0,1,.52-.73,4,4,0,0,1,2.21-1,3.6,3.6,0,0,0-2.75,2.15"/><path id="path1992" class="cls-16" d="M51.84,120.19A5.54,5.54,0,0,1,55.09,119a3,3,0,0,1,.42,0h0l-.45,0a5.5,5.5,0,0,0-3.24,1.22h0"/><path id="path1994" class="cls-17" d="M50.6,121.2a5.91,5.91,0,0,1,4.28-2.28,3.21,3.21,0,0,1,.63.06,3,3,0,0,0-.42,0,5.54,5.54,0,0,0-3.25,1.23,5.83,5.83,0,0,0-1.24,1"/><path id="path1996" class="cls-16" d="M40,120.36h0a4.28,4.28,0,0,1,1.45-.52h0a4.08,4.08,0,0,0-1.46.53"/><path id="path1998" class="cls-17" d="M40,120.35c.37-.33.77-.64,1.15-1a6.12,6.12,0,0,0,.8-.72,2.6,2.6,0,0,0,.79-1,3.89,3.89,0,0,0,.2-1,9.57,9.57,0,0,0,0-2.83c.1.16.21.31.32.47.07.53.13,1.07.17,1.61a3.88,3.88,0,0,1-.2,2,5.32,5.32,0,0,1-1.82,2,4.28,4.28,0,0,0-1.45.52"/><path id="path2000" class="cls-16" d="M38.46,122.41a2.22,2.22,0,0,1,.15-.59l0-.07a2.28,2.28,0,0,0-.18.63v0"/><path id="path2002" class="cls-17" d="M22.27,131.43a9.62,9.62,0,0,1-7-3.18l0,0,0,0h0l0,0h0a11.69,11.69,0,0,1-.78-1,29.65,29.65,0,0,0,2.63,1.85l.31.18a8.67,8.67,0,0,0,4.9,1.64,7.16,7.16,0,0,0,2.38-.4c3.53-1.25,4.24-4.47,5-7.72h.15a11.37,11.37,0,0,1-1.57,5.75c1-.73,2-1.36,3-2.13a16.81,16.81,0,0,0,3.08-3.17,22.08,22.08,0,0,0,3.37-7.69,23.2,23.2,0,0,0-2.08-16,10.75,10.75,0,0,1,1,1.3,21.37,21.37,0,0,1,1.69,15.14,22.6,22.6,0,0,1-3.44,7.73c-.18.23-.36.47-.55.7.24-.16.49-.31.73-.45a13.78,13.78,0,0,1,3.36-1.59,4.46,4.46,0,0,1,.22-.5,2.22,2.22,0,0,0-.15.59,6.49,6.49,0,0,0-.26.74v0h0c-.81.5-1.81.81-2.63,1.23a31.18,31.18,0,0,0-3,2l-.13,0a17.61,17.61,0,0,1-4.55,3.15.23.23,0,0,1-.11,0,.23.23,0,0,1-.21-.15,5.83,5.83,0,0,1-2.2,1.51,8.53,8.53,0,0,1-3.14.6"/><path id="path2004" class="cls-16" d="M39.09,121.07l0,0a3.71,3.71,0,0,1,.75-.61h0l.07,0h0a3.56,3.56,0,0,0-.87.71"/><path id="path2006" class="cls-17" d="M39.12,121l.33-.39.42-.22a3.71,3.71,0,0,0-.75.61m.5-.58a8.53,8.53,0,0,1,.73-.65c.45-.35,1-.67,1.49-1.05a9.17,9.17,0,0,1-.72.65c-.47.37-1,.71-1.5,1m3.29-3.79a11.31,11.31,0,0,0-.16-2.25,7.19,7.19,0,0,1,.16,2.25m0-2.82a6,6,0,0,1-.31-.55l0,0c-.09-.51-.18-1-.28-1.53a12.14,12.14,0,0,0-.24-1.68,18.27,18.27,0,0,1,.52,1.89,17.72,17.72,0,0,1,.33,1.82"/><path id="path2008" class="cls-17" d="M39.87,120.41l.1-.06h0l-.07,0h0"/><path id="path2010" class="cls-21" d="M39.45,120.63l.17-.19c.5-.34,1-.68,1.5-1-.38.32-.78.63-1.15,1l-.1.06-.42.22m3.46-4h0a7.19,7.19,0,0,0-.16-2.25l-.06-.49-.06-.49v-.09l0,0a6,6,0,0,0,.31.55,9.57,9.57,0,0,1,0,2.83"/><path id="path2012" class="cls-16" d="M92.59,61.8c.79-1.27,1.58-2.52,2.48-3.71l.11.09L92.59,61.8"/><path id="path2014" class="cls-17" d="M65.31,82.41a15.81,15.81,0,0,1-5.06-.79,20.52,20.52,0,0,0,5.3.65h.17c.84,0,1.69,0,2.53-.09a19.31,19.31,0,0,1-2.94.23M72.71,81c1.24-.59,2.42-1.3,3.62-2h0a16.22,16.22,0,0,1-2.52,1.52l-1.1.47M50.64,74.67a15.05,15.05,0,0,0-1.83-1.19,13.38,13.38,0,0,0-2.5-2.06l-.17,0c-.87-.7-1.78-1.36-2.67-2.05A29.36,29.36,0,0,1,39.93,66c-.4-.5-.77-1-1.13-1.56l.08-.06c2.25,3,5.26,5.32,8.25,7.57l.57.43h0l.35.28c.86.65,1.71,1.31,2.55,2"/><path id="path2016" class="cls-17" d="M62.32,103.85c-.28-1.74-.66-3.45-1.07-5.12A69.08,69.08,0,0,0,55,83.24c-1.73-3.3-3.51-7-6.2-9.78l0,0C51.49,76.22,53.27,80,55,83.24a69.08,69.08,0,0,1,6.26,15.49c.41,1.67.79,3.38,1.07,5.12h0"/><path id="path2018" class="cls-21" d="M69.29,120.26a16,16,0,0,1-1.77-.49h0a14.06,14.06,0,0,0-1.94-.34c-.54-.05-1.09-.09-1.65-.09a8.55,8.55,0,0,0-2.42.31c0-.1,0-.19.05-.29a7.61,7.61,0,0,1,3.18-.61H65a17.35,17.35,0,0,1,4.19.87c0,.17,0,.34.07.5a.53.53,0,0,0,0,.13m-.09-.75c-.85-4.3.3-8.69,1.06-12.92a79.25,79.25,0,0,1,5.52-17.43A106,106,0,0,1,84.29,73c1.42-2.2,2.9-4.35,4.43-6.48.33-1.22.85-2.43,1.21-3.66a20.41,20.41,0,0,1,1.3-3.47l.11,0c-.51,1.45-.77,3-1.18,4.48-.08.31-.17.64-.26,1,1.68-2.3,3.4-4.56,5.16-6.8h0c-.9,1.19-1.69,2.44-2.48,3.71-3,4.17-5.93,8.38-8.61,12.75q-2.4,3.93-4.46,8c-.93,1.73-1.82,3.49-2.63,5.3-1,2.13-1.81,4.31-2.57,6.52-.49,1.16-1,2.33-1.4,3.5l0-.14-.18,0a24.43,24.43,0,0,0-1.48,5.15c-.46,2.12-1,4.24-1.34,6.37a53.13,53.13,0,0,0-.66,6.77c-.05,1-.1,2.09-.1,3.14,0,.1,0,.19,0,.29"/><path id="path2020" class="cls-23" d="M69.28,120.13c0-.16,0-.33-.07-.5h0l0-.12c0-.1,0-.19,0-.29,0-1,0-2.09.1-3.14a53.13,53.13,0,0,1,.66-6.77c.38-2.13.88-4.25,1.34-6.37a24.43,24.43,0,0,1,1.48-5.15l.18,0,0,.14-.18.48a57.86,57.86,0,0,0-2.62,11.33,62.38,62.38,0,0,0-.88,9c0,.48,0,1,0,1.45"/><path id="path2022" class="cls-21" d="M61.62,119c0-.29.08-.57.13-.85a25.81,25.81,0,0,0,.71-2.65,28,28,0,0,0,.56-5,36.74,36.74,0,0,0-.65-7.33c0,.22,0,.43,0,.65-.28-1.74-.66-3.45-1.07-5.12A69.08,69.08,0,0,0,55,83.24c-1.72-3.29-3.5-7-6.18-9.76a15.05,15.05,0,0,1,1.83,1.19l.85.71c1.26,1.08,2.44,2.25,3.71,3.31a13.66,13.66,0,0,0,4.94,2.9l.11,0a15.81,15.81,0,0,0,5.06.79,19.31,19.31,0,0,0,2.94-.23,11.53,11.53,0,0,0,3.23-.66c.42-.16.83-.33,1.23-.52l1.1-.47A16.22,16.22,0,0,0,76.33,79l.07.1A22.29,22.29,0,0,1,71.32,82a17.44,17.44,0,0,1-5.56.84h-.39a15.11,15.11,0,0,1-9.84-3.09c-1.45-1.16-2.76-2.47-4.16-3.69a45,45,0,0,1,4.87,8.36,78,78,0,0,1,5.44,14.93c1.24,5.12,2,10.85.84,16.06-.26,1.17-.53,2.4-.9,3.6"/><path id="path2024" class="cls-23" d="M61.75,118.18c.15-1,.29-2,.51-3a24.07,24.07,0,0,0,.59-5.42,37.29,37.29,0,0,0-.53-6c0-.22,0-.43,0-.65a36.74,36.74,0,0,1,.65,7.33,28,28,0,0,1-.56,5,25.81,25.81,0,0,1-.71,2.65"/><path id="path2026" class="cls-16" d="M65.15,78.92a2,2,0,0,0-.09-.26,21.48,21.48,0,0,0-1.77-2.43,14.14,14.14,0,0,0-1-1.16l-.59-.56a21,21,0,0,0-5.81-4c-3.44-1.56-7-2.91-10.43-4.39s-6.79-3.23-8.88-6.38c-.28-.42-.54-.85-.77-1.28A12.89,12.89,0,0,0,36.88,60c2.74,3.31,6.82,5.13,10.65,6.89s8.25,3,12,5.26A16.32,16.32,0,0,1,65,77.73a6.78,6.78,0,0,1,1.63-4.42,19.15,19.15,0,0,1,5.59-4.9c2.71-1.57,5.68-2.65,8.31-4.34a15.14,15.14,0,0,0,3.72-3.23,20.82,20.82,0,0,0,2.58-4.39l0-.05c0-.13.09-.26.14-.39l.11,0a15,15,0,0,1-1,4l.09-.1a7.81,7.81,0,0,1,1.44-1.05,12.88,12.88,0,0,0,3.24-2.53,15.26,15.26,0,0,0,2.22-3.59,8.77,8.77,0,0,0,1.13-3.92c0-.16-.09-.31-.15-.46l.13-.07.09.17.07.06v.08a4,4,0,0,1,.39,2.16c.36-.72.74-1.43,1.07-2.16-.31.78-.62,1.56-.91,2.34a.2.2,0,0,1-.19.14.19.19,0,0,1-.19-.2,8.85,8.85,0,0,0-.24-1.86,12.39,12.39,0,0,1-1.58,5.11A18,18,0,0,1,89.76,58c-1.05,1-2.51,1.32-3.54,2.36a.19.19,0,0,1-.13,0,.2.2,0,0,1-.2-.25,8.05,8.05,0,0,0,.49-2,14.58,14.58,0,0,1-2.24,3.19,27.83,27.83,0,0,1-6.75,5C72.79,69,65.16,71.65,65.16,77.87a8.56,8.56,0,0,1,0,1"/><path id="path2028" class="cls-14" d="M35.09,49.94l.12-.48.11.07c-.08.14-.16.27-.23.41"/><path id="path2030" class="cls-16" d="M34.42,55.12A12.46,12.46,0,0,1,34,51.8,9.2,9.2,0,0,0,33.81,55,7.21,7.21,0,0,1,33.89,52a5.65,5.65,0,0,0-.4,1.16h-.17a1.66,1.66,0,0,1,0-.82,8.61,8.61,0,0,1,1.24-6.47l.16.1a15.72,15.72,0,0,0-1.15,5.71,9.28,9.28,0,0,1,1.12-1.46,8.61,8.61,0,0,1,.53-.75l0,0-.12.48a7.65,7.65,0,0,0-.67,5.18m61.91-7.73a18.92,18.92,0,0,0,1-4.51,11.41,11.41,0,0,0-2.29-8.55l-.5-.29,0,0a6.64,6.64,0,0,1,2.32,1.2,8.07,8.07,0,0,0-.74-1A5.76,5.76,0,0,0,94,32.61l0-.13A5.26,5.26,0,0,1,97.64,36l.15.21-.1.11h0l0-.07c-.59-.47-1.17-.95-1.78-1.4a9.66,9.66,0,0,1,2.11,7c0-.15,0-.3-.07-.44a19.87,19.87,0,0,1-1.53,6"/><path id="path2032" class="cls-17" d="M65.58,79.91a21.77,21.77,0,0,0-2.29-3.68,21.48,21.48,0,0,1,1.77,2.43,2,2,0,0,1,.09.26,8.56,8.56,0,0,0,0-1c0-6.22,7.63-8.89,12.23-11.51a27.83,27.83,0,0,0,6.75-5,14.58,14.58,0,0,0,2.24-3.19,8.05,8.05,0,0,1-.49,2,.2.2,0,0,0,.2.25.19.19,0,0,0,.13,0c1-1,2.49-1.38,3.54-2.36a18,18,0,0,0,2.95-3.77,12.39,12.39,0,0,0,1.58-5.11A8.85,8.85,0,0,1,94.53,51a.19.19,0,0,0,.19.2.2.2,0,0,0,.19-.14c.29-.78.6-1.56.91-2.34.13-.29.26-.59.37-.9,0-.13.1-.26.14-.39a19.87,19.87,0,0,0,1.53-6c0,.14,0,.29.07.44s0,.53-.05.79A19.65,19.65,0,0,1,96.64,48a20.7,20.7,0,0,1-2.1,3.88v.06l0,0c-.1.15-.19.3-.29.44l-.11-.07c.1-.28.23-.56.36-.84a15.07,15.07,0,0,0-.06-1.65,12.41,12.41,0,0,1-2.67,6.48,10.76,10.76,0,0,1-3.15,2.78,17.82,17.82,0,0,0-2,1.27,13.91,13.91,0,0,0-1.12,1l-.13.21-.1,0-.14.13L85,61.69l.17-.25c.18-.59.37-1.18.57-1.78a13.13,13.13,0,0,1-3.32,3.9,45.17,45.17,0,0,1-7.71,4.26,21.9,21.9,0,0,0-6.59,4.65c-1.3,1.42-2.58,3.24-2.67,5.18a6.4,6.4,0,0,0,.16,2.26m-3.92-5.4a19.56,19.56,0,0,0-4.74-3.12c-2.08-1-4.26-1.74-6.41-2.59A70.78,70.78,0,0,1,44,65.86c-3.49-1.78-6.9-3.85-8.88-7.37A10.6,10.6,0,0,1,33.81,55,9.2,9.2,0,0,1,34,51.8a12.46,12.46,0,0,0,.44,3.32,10.45,10.45,0,0,0,1.35,3.36c.23.43.49.86.77,1.28,2.09,3.15,5.49,4.94,8.88,6.38s7,2.83,10.43,4.39a21,21,0,0,1,5.81,4"/><path id="path2034" class="cls-17" d="M78.75,76.65l-.07-.1c4-2.54,6.36-6.82,8.64-10.87l.08,0a22.62,22.62,0,0,1-1,2.46l-.42.73a26.89,26.89,0,0,1-5.47,6.6l-.27.25a14.55,14.55,0,0,1-1.45.9"/><path id="path2036" class="cls-21" d="M80.2,75.75l.27-.25a26.89,26.89,0,0,0,5.47-6.6l.42-.73a20.29,20.29,0,0,1-6.16,7.58"/><path id="path2038" class="cls-1" d="M41,4.14c-2.2.2-4.41,1.87-5.78,3.44a7.92,7.92,0,0,0-1.79,3.95A6.45,6.45,0,0,0,33.09,14,5,5,0,0,0,35,17.24c2.35,1.94,6.12,1.24,8.73.23l.11-.07c.52,0,1-.63,1.29-1a6.64,6.64,0,0,0,.69-1.06l.08-.14L46,15c.31-3.29.21-11.35-5-10.89"/><path id="path2040" class="cls-24" d="M38.87,18.47A6,6,0,0,1,35,17.24,5,5,0,0,1,33.09,14c0-.19,0-.37,0-.56,0,.19,0,.37,0,.56A5,5,0,0,0,35,17.24a6,6,0,0,0,3.91,1.23,11.19,11.19,0,0,0,1.63-.13h0a11.19,11.19,0,0,1-1.63.13"/><path id="path2042" class="cls-25" d="M38.87,18.47A6,6,0,0,1,35,17.24,5,5,0,0,1,33.09,14c0-.19,0-.37,0-.56v-.1c.34,1.42.51,2.64,2.18,3h0c.24,0,1-.15.86-.23-1-.82-.63-2.77-.2-4.07a10.31,10.31,0,0,1,2.26-3.74,3.31,3.31,0,0,1,2.14-.86,2,2,0,0,1,1.5.62c.8.87,1.42,2.11,2,2.8l.32-.08c.67-1.73,0-4.27-1-5.79a3.14,3.14,0,0,0-.45-.57c2.67,1,3.31,5.06,3.35,8.18-.66.54-1.3,1.1-1.91,1.68h0c-.25.24-.5.48-.74.73a21.16,21.16,0,0,0-1-3,4.48,4.48,0,0,0-1.79-2.27,2.33,2.33,0,0,0-1-.26,1.84,1.84,0,0,0-1.5.89c-1.6,1.92-1.65,6.4,1.7,6.46H40a6.53,6.53,0,0,0,2-.28q-.78.89-1.5,1.83h0a11.19,11.19,0,0,1-1.63.13"/><path id="path2044" class="cls-26" d="M43.67,15.67A21.81,21.81,0,0,0,42.44,12a4.48,4.48,0,0,0-1.79-2.27c-2.17-1.06-3.12,1.36-3.37,3l.11,0a7.17,7.17,0,0,1,.94-2.18,1.74,1.74,0,0,1,2.66.25c1.27,1.46,1.39,3.42,2.13,5.1a.29.29,0,0,0,.55-.19"/><path id="path2046" class="cls-27" d="M40,16.79h-.2c-3.35-.06-3.3-4.54-1.7-6.46a5.75,5.75,0,0,0-.86,2.33l.11,0a7.17,7.17,0,0,1,.94-2.18A1.38,1.38,0,0,1,39.42,10a2.23,2.23,0,0,1,1.57.78c1.18,1.35,1.37,3.14,2,4.73-.32.33-.63.67-.93,1h0a6.53,6.53,0,0,1-2,.28"/><path id="path2048" class="cls-28" d="M43,15.49c-.6-1.59-.79-3.38-2-4.73A2.23,2.23,0,0,0,39.42,10a1.38,1.38,0,0,0-1.09.53,7.17,7.17,0,0,0-.94,2.18l-.11,0a5.75,5.75,0,0,1,.86-2.33,2.11,2.11,0,0,1,1.6-.86,2.15,2.15,0,0,1,.91.23A4.48,4.48,0,0,1,42.44,12a21.16,21.16,0,0,1,1,3l-.52.54"/><path id="path2050" class="cls-4" d="M37.34,7.2a4.43,4.43,0,0,0-3.17,3.31h.06A10.78,10.78,0,0,1,38,7l-.65.21"/><path id="path2052" class="cls-4" d="M39.55,6.24A3.27,3.27,0,0,0,36.13,7.3a2.8,2.8,0,0,0-.31.4c.8-.86,3-1.38,4.23-1.33l-.5-.13"/><path id="path2054" class="cls-4" d="M42.91,5.51c-1-1.71-3.09-1-4.43-.12a6.67,6.67,0,0,0-.71.51c1.7-.42,3.84-1.17,5.22-.12l-.08-.27"/><path id="path2056" class="cls-1" d="M70.66,14.31c0,.09.14.11.26.08l.14.07a4.36,4.36,0,0,0,1.42.41,7.54,7.54,0,0,0,3.08-.23,1.26,1.26,0,0,0,.32,0c3.2-.47,7.9-1.27,9.42-4.55a5,5,0,0,0,.15-3.94A7.07,7.07,0,0,0,83.89,4C81.18,1.34,77.6-1.07,73.56.5c-3.4,1.32-3.63,11.1-2.9,13.81"/><path id="path2058" class="cls-24" d="M85.79,7.8a4.12,4.12,0,0,0-.34-1.67,4.12,4.12,0,0,1,.34,1.67m-.34-1.67,0-.11,0,.11m-14.69-.5A13.36,13.36,0,0,1,72,1.53a5.35,5.35,0,0,0-.17.74v0a12.41,12.41,0,0,0-1.06,3.33"/><path id="path2060" class="cls-25" d="M78.42,14.19q-.57-.4-1.14-.78c-.22-.15-.44-.31-.66-.45a9.23,9.23,0,0,0,3.76-1.12c1.55-1.1,1-3.29-.27-4.87l.09-.06c-.78-1-1.83-2.13-3-2.13a2.15,2.15,0,0,0-1.62.88h0c-.7.62-.83,2-1,3v0a14.78,14.78,0,0,0-.31,2.77,27,27,0,0,0-3.87-1.85,29.91,29.91,0,0,1,.38-4A12.41,12.41,0,0,1,71.82,2.3a13.09,13.09,0,0,0,.83,6,.11.11,0,0,0,.11.07.21.21,0,0,0,.17-.14c.51-1.07.53-2.48,1-3.68A2.83,2.83,0,0,1,76.65,3a3.21,3.21,0,0,1,.95.14,12.85,12.85,0,0,1,3.73,2.5c1.12,1,2.66,2.65,2.11,3.87,0,0,0,0,.09,0a3.28,3.28,0,0,0,1-.24c1.5-1.07,1-2.31.63-3.8A5.05,5.05,0,0,1,85.4,6l0,.11h0a4.12,4.12,0,0,1,.34,1.67,5.66,5.66,0,0,1-.49,2.27h0a5.7,5.7,0,0,1-.39.68,5.57,5.57,0,0,1-.43.56,9.82,9.82,0,0,1-5,2.63l-1,.25M78.1,5.37l-.14,0,.14,0"/><path id="path2062" class="cls-26" d="M74.4,13.11a11.35,11.35,0,0,1,.16-4.4,6.34,6.34,0,0,1,1-3.05c1.75-2,3.48-.13,4.61,1.25L80.09,7a11.22,11.22,0,0,0-2-1.61c-1.11-.52-2.18.46-2.5,1.48-.61,2-.15,4-.08,6,0,.4-1.06.62-1.14.24"/><path id="path2064" class="cls-27" d="M76.62,13l-1.12-.73c-.12-1.77-.43-3.62.12-5.37a2.2,2.2,0,0,1,1.87-1.62,1.29,1.29,0,0,1,.47.08l.14,0h0a11.22,11.22,0,0,1,2,1.61l0,0c1.27,1.58,1.82,3.77.27,4.87A9.23,9.23,0,0,1,76.62,13M74.56,8.69c.2-1,.33-2.41,1-3a6.23,6.23,0,0,0-1,3"/><path id="path2066" class="cls-28" d="M75.5,12.23c-.41-.26-.83-.51-1.25-.75a14.78,14.78,0,0,1,.31-2.77v0a6.23,6.23,0,0,1,1-3h0A2.06,2.06,0,0,1,77,5.13a2.8,2.8,0,0,1,1,.19,1.29,1.29,0,0,0-.47-.08,2.2,2.2,0,0,0-1.87,1.62c-.55,1.75-.24,3.6-.12,5.37M80.09,7a11.22,11.22,0,0,0-2-1.61h0a5.45,5.45,0,0,1,2,1.6l0,0"/><path id="path2068" class="cls-4" d="M78.21,1.71a4.5,4.5,0,0,1,4.44,1.67l-.05.05a11.31,11.31,0,0,0-5.1-1.61l.71-.11"/><path id="path2070" class="cls-4" d="M75.71,1.82a3.49,3.49,0,0,1,3.73-.58,1.88,1.88,0,0,1,.44.25c-1.09-.45-3.43.08-4.63.69l.46-.36"/><path id="path2072" class="cls-4" d="M72.31,2.67C72.63.58,74.84.35,76.45.52a7.37,7.37,0,0,1,.88.15c-1.79.4-4.18.66-5,2.29V2.67"/><path id="path2074" class="cls-1" d="M91,22a14.52,14.52,0,0,0-7.77-3.74,31,31,0,0,0-5.92-4.83,32.12,32.12,0,0,0-7-3.82,60.44,60.44,0,0,0-7.61-2c-2.09-.47-6.29-1.12-5.89-4.12l.16-.3-.1-.08c-1.25,1.15-2.13,2.74-1.05,4.05a6.22,6.22,0,0,0-2.48-.58,6.49,6.49,0,0,0-3.89,1l0,.07.5-.13a8.32,8.32,0,0,1,2.52.91,5.23,5.23,0,0,0-1.84.26h-.08l-.4.14v.08a5.42,5.42,0,0,0,.9,0,6.44,6.44,0,0,1,.61.24A26.56,26.56,0,0,0,42,16.5a40,40,0,0,0-4.12,5.63c-.66,1.09-1.22,2.23-1.81,3.35a11.87,11.87,0,0,0-1.25,3.07c-.26.15-.51.31-.75.47a10.12,10.12,0,0,0-2.62,2.72,11.92,11.92,0,0,0-2.4,7.31,1.83,1.83,0,0,0-.07.53h.12l.05-.13.06,0,.09-.29a4.45,4.45,0,0,1,.91-1.1,4.39,4.39,0,0,1,.53-.41c-1.19,1.87,1.24,4.51,2.75,5.59a28.69,28.69,0,0,0,4.82,2.67A34.14,34.14,0,0,0,43,47.8a2.63,2.63,0,0,0,.3,1.16,3.82,3.82,0,0,0,2.08,1.45h.06a5.83,5.83,0,0,0,1.54.52c1.29,1.86,3.55,2.68,5.71,3a18.42,18.42,0,0,0,7.92-.49c2.58-.72,5.28-1.76,7-3.85a38,38,0,0,1,3.55-3.85c.34-.3.7-.6,1.06-.89a75.61,75.61,0,0,1,7-4,60.54,60.54,0,0,1,7-2.47,11.46,11.46,0,0,0,5.42-4.2,5,5,0,0,0,1-4.8l.17.22a6.07,6.07,0,0,1,1.06,2l.1.06.14-.07c1-3.49-.62-7.25-3.17-9.61"/><path id="path2076" class="cls-2" d="M58.67,6.41a3,3,0,0,1-1.91-2.33h0a3,3,0,0,0,1.9,2.33h0"/><path id="path2078" class="cls-29" d="M60.34,7a9,9,0,0,1-1.67-.62h0A9.25,9.25,0,0,0,60.34,7h0"/><path id="path2080" class="cls-30" d="M60.56,7.09,60.34,7h0l.22.06"/><path id="path2082" class="cls-2" d="M53.31,6.55h0"/><path id="path2084" class="cls-3" d="M52.21,27.79a4.48,4.48,0,0,1-2.06-.42c-1-.53-1-2.44-1.07-3.44s-.11-2.17-.3-3.25c-.26-1.58-1.11-3.41-2.73-3.94-.91-.29-1.89-.5-1.34-1.65a7.58,7.58,0,0,1,1.68-2,2.39,2.39,0,0,1,.23-.22l.23-.19A25.64,25.64,0,0,1,49.2,11a5.43,5.43,0,0,1,2.08-.59h.27a6.94,6.94,0,0,1,2.3.41h.06c.14,0,.21-.18.16-.3a2.87,2.87,0,0,0-2-1.64h0l.3,0a8.13,8.13,0,0,1,2.87,1l.09,0c.12,0,.25-.12.2-.25a4,4,0,0,0-3.06-2.55h.47a9.53,9.53,0,0,1,3.42.69c.4.21.81.44,1.24.65l.09,0a.2.2,0,0,0,.14-.34A3.73,3.73,0,0,1,56.6,4.74a3.67,3.67,0,0,0,2.5,2.44c2.52,1,5.3,1.3,7.92,2q.36.13.72.3A18.27,18.27,0,0,1,74.3,14c.45.53,1.31,1.82.47,2.36a1.66,1.66,0,0,1-.94.25,8.53,8.53,0,0,1-3.32-1.14c-1.66-.84-3.48-2.1-5.42-2.1a4.68,4.68,0,0,0-.64,0c-3.58.54-4.61,4.88-5.3,7.83-.44,1.9-.67,4.22-2.35,5.48a6.25,6.25,0,0,1-3,.92,13.15,13.15,0,0,1-1.55.11"/><path id="path2086" class="cls-3" d="M72.72,29.46A1.34,1.34,0,0,1,71.33,28a6.78,6.78,0,0,1,.85-2.77,12,12,0,0,1,4.2-4.91,10.56,10.56,0,0,1,3.79-1.46,5.64,5.64,0,0,1,1.08-.1l.53,0c.5.07,1,.15,1.36.24a.19.19,0,0,0,.11.29,18.94,18.94,0,0,1,7.16,3.75,8.67,8.67,0,0,1,1.33,1.88,1,1,0,0,1-.62.18H91a2.13,2.13,0,0,1-.49-.15,20,20,0,0,0-2.29-1,1.66,1.66,0,0,0-.32,0,1.12,1.12,0,0,0-.65.18l-.2,0a.24.24,0,0,1,.13.07.58.58,0,0,0-.15.16c-.35.5,0,1,.25,1.42s-.06.5-.46.5A5.92,5.92,0,0,1,85.44,26a4.68,4.68,0,0,0-1.18-.12H84a18.1,18.1,0,0,0-3.95.49,16.84,16.84,0,0,0-3.35,1.3,28,28,0,0,1-3.23,1.64,2.27,2.27,0,0,1-.74.13"/><path id="path2088" class="cls-3" d="M30.73,36a.46.46,0,0,1-.4-.22.75.75,0,0,1-.15-.47,14.56,14.56,0,0,1,1.73-3.2,14.18,14.18,0,0,1,4.22-3.86,12.78,12.78,0,0,1,4.24-1h.34a8.8,8.8,0,0,1,5,1.93l.08.15c1.36,1-1.77,1.72-2.47,1.84a14.58,14.58,0,0,0-5.52,2.25,14.47,14.47,0,0,1-2.75,1.74h0c-.26,0-.33-.81-.43-1a.64.64,0,0,0-.57-.35c-.59,0-1.34.7-1.65,1S31.3,36,30.73,36"/><path id="path2090" class="cls-5" d="M71.51,36.69A8.94,8.94,0,0,0,68,32.59c-3.29-2.22-7.13-2.76-10.81-4.12a63.86,63.86,0,0,0-8.94,1c-3.77,1.62-8.62,6.36-10,10.78a6.62,6.62,0,0,0,1.82,3.57c.75.82,2,1.1,2.69,1.9s0,2.08.46,3.08l.08.16a3.82,3.82,0,0,0,2.08,1.45h.06a5.83,5.83,0,0,0,1.54.52l.14.19c8.45,2.48,17.72-1.32,22.92-8.42,1.27-1.73,2.31-3.85,1.49-6"/><path id="path2092" class="cls-31" d="M47,50.94l-.44-.1.44.1"/><path id="path2094" class="cls-25" d="M55.23,53.55a12.06,12.06,0,0,1-7.39-2.22,18.9,18.9,0,0,0,4.59.56A22.26,22.26,0,0,0,70,42.71c1.27-1.73,2.31-3.85,1.49-6A8.94,8.94,0,0,0,68,32.59C65.15,30.68,61.9,30,58.69,29c.37,0,.73,0,1.08,0,3,0,5.73,1,8.59,1.84A26.85,26.85,0,0,0,76,31.85q1.36,0,2.73-.12a32,32,0,0,0,5-.83c1.56-.38,4.19-1,4.62-2.85a8.4,8.4,0,0,0-1.18-3.89l.06-.05c1.58.17,5.09,1.45,5.25,3.25a6.7,6.7,0,0,0-.71-2.43c.14-.13.18-.34,0-.67a4.71,4.71,0,0,0-1.16-1.11l-.13-.1a15,15,0,0,0-7.11-4l-.16,0h0a9.33,9.33,0,0,0-1.37-.23c-1.18-.16-2.51-.28-3.39-.44.22,0,2.08-.3,2.29-.4l.37,0c-.84-1.26-2.31-2-3.48-2.89a42.72,42.72,0,0,0-5.47-3.56c-1-.56-2-1.16-2.94-1.72A28.81,28.81,0,0,1,75.7,13c1.22.8,2.44,1.63,3.6,2.51s2,1.81,3.1,2.62a14.35,14.35,0,0,0-1.61-.09h-.06v.1a17.79,17.79,0,0,1,9.66,4.07,10,10,0,0,1,2.87,4,11.78,11.78,0,0,1,.62,3.83,7.8,7.8,0,0,0-1.63-1.71l0-.08-.09,0-.2-.2-.1.07c.09.17.19.33.29.49a4.57,4.57,0,0,1,0,3.81,11.22,11.22,0,0,1-2.24,2.89,12.51,12.51,0,0,1-5.88,3,31.32,31.32,0,0,0-8.83,4.13l-.09-.05a37.13,37.13,0,0,0-6.42,5.24,20.62,20.62,0,0,1-3.07,2.91,15.52,15.52,0,0,1-3.85,1.79,20.14,20.14,0,0,1-6.48,1.14"/><path id="path2096" class="cls-32" d="M91.74,24.93a8.67,8.67,0,0,0-1.33-1.88l.13.1a4.71,4.71,0,0,1,1.16,1.11c.22.33.18.54,0,.67m-4.6-.77a.23.23,0,0,0-.14-.07l.2,0-.06.05m-4-5.15c-.39-.09-.86-.17-1.36-.24a9.33,9.33,0,0,1,1.37.23h0"/><path id="path2098" class="cls-33" d="M43.48,15h0c.24-.25.49-.49.74-.73h0l-.74.73"/><path id="path2100" class="cls-34" d="M42,16.5c.3-.34.61-.68.93-1h0c-.32.33-.62.67-.93,1"/><path id="path2102" class="cls-35" d="M43,15.49h0l.52-.54h0l-.52.54"/><path id="path2104" class="cls-25" d="M43,47.19a50.89,50.89,0,0,1-7.45-3.37c-2.23-1.26-5.84-3.93-3.9-6.85l-.1-.11-.09.06-.08,0a.45.45,0,0,0-.16,0c-.52,0-1.08.59-1.38.92l-.27.32a17.2,17.2,0,0,1,.51-2.45v0c0,.19,0,.38,0,.57a.2.2,0,0,0,.19.2h.06a10.33,10.33,0,0,0,3-1.71,2.61,2.61,0,0,0-.5,1.88,1.23,1.23,0,0,0,1.38.92A6.59,6.59,0,0,0,36.47,37a9,9,0,0,0,2.39-1.61c1.06-.88,2.11-1.76,3.2-2.58a18.41,18.41,0,0,1,5.18-2.87.67.67,0,0,0-.14.09q-.6.38-1.17.78A20.88,20.88,0,0,0,44.26,32a17.45,17.45,0,0,0-5.42,6.67c-.27.43-.52.88-.75,1.34a1.68,1.68,0,0,0-.2.79c0,1,1,1.86,1.64,2.63A12.87,12.87,0,0,0,43,46.35v.07c0,.24,0,.5,0,.77m-7.38-19a31.77,31.77,0,0,1,2.7-5.45,37.6,37.6,0,0,1,3.21-4.61,42.71,42.71,0,0,0-4.76,8.7A.2.2,0,0,0,37,27h0c.32-.08,1.66-.21,2-.26-.5.21-1.1.46-1.72.74l.16-.1-.07-.14c-.58.28-1.17.56-1.74.87"/><path id="path2106" class="cls-36" d="M52.43,51.89a18.9,18.9,0,0,1-4.59-.56h0l.81.18h.1a4.58,4.58,0,0,0,1.83-.4,4.59,4.59,0,0,1,1-.33l.24,0a3.65,3.65,0,0,1,1,.22,5.88,5.88,0,0,0,1.71.28h.14a18,18,0,0,0,4-.46c2.4-.65,4.63-1.82,5.84-4.08C65.5,45,66,43.11,66.75,41.33c-.07-.11,0-.24.15-.27l.26.1a1.79,1.79,0,0,0,1.07.34c1.47,0,3.06-1.64,3.36-3l-.28.25h0a1.33,1.33,0,0,1-.19.14,5.24,5.24,0,0,1-3,.94A5.16,5.16,0,0,1,66,39.36a5.93,5.93,0,0,1-1.93-2.17l-.08,0h0c.08.23.16.45.26.67a5.22,5.22,0,0,1-.26-.47A2.89,2.89,0,0,0,65.46,40l.09.09v.28c-1.36,1.59-1.64,3.77-2.84,5.46a7.57,7.57,0,0,1-4.07,2.8,16.42,16.42,0,0,1-4.66.88,4.54,4.54,0,0,1-3.76-1.54.22.22,0,0,1,.15-.35.14.14,0,0,1,.12.07l.06.06a13.05,13.05,0,0,0,5.2-2.42c1.28-.9,4.12-2.89,3.65-4.77s-2.2-3.34-3.7-4.2c-.26-.15-.53-.28-.8-.41-.39-.33-.78-.65-1.18-1l-.59-.43c.5.1,1,.2,1.48.34a8.3,8.3,0,0,0,2.46.42l.44,0a16.5,16.5,0,0,0,5.94-2.4c2.52-2-2.75-3-4.81-3.87h0c3.21,1,6.46,1.69,9.3,3.6a8.94,8.94,0,0,1,3.52,4.1c.82,2.17-.22,4.29-1.49,6a22.26,22.26,0,0,1-17.59,9.18m-5.73-1.5a13.36,13.36,0,0,1-1.48-.47,6.26,6.26,0,0,1-1.39-1.08A3.86,3.86,0,0,1,43.32,47a4.8,4.8,0,0,0,2.92,1,3.56,3.56,0,0,0,.8-.08l.18.06.14.06A5.22,5.22,0,0,0,49,49.5a.2.2,0,0,1,0,.38c-.7.17-1.52.39-2.33.51M44.26,32a20.88,20.88,0,0,1,1.67-1.26c-.49.35-1,.71-1.43,1.07l-.24.19"/><path id="path2108" class="cls-37" d="M48.74,51.51h-.1l-.81-.18L47.48,51h0l0,0c.21,0,.41,0,.62,0A5.4,5.4,0,0,0,51.37,50a9.63,9.63,0,0,0,2,.83,5.44,5.44,0,0,0,1.45.18,10.78,10.78,0,0,0,3.81-.85c.85-.29,1.69-.59,2.47-.94a6.65,6.65,0,0,0,2.48-2c1.55-2.07,1.21-5,3.11-6.81v0a4.65,4.65,0,0,0,.52.2,3.85,3.85,0,0,0,1,.14,3.65,3.65,0,0,0,3.17-1.83h0l-.12-.1a3.47,3.47,0,0,0,.29-.25c-.3,1.39-1.89,3-3.36,3a1.79,1.79,0,0,1-1.07-.34l-.26-.1c-.13,0-.22.16-.15.27C66,43.11,65.5,45,64.58,46.72c-1.21,2.26-3.44,3.43-5.84,4.08a18,18,0,0,1-4,.46h-.14A5.88,5.88,0,0,1,52.87,51a3.65,3.65,0,0,0-1-.22l-.24,0a4.59,4.59,0,0,0-1,.33,4.58,4.58,0,0,1-1.83.4m-.94-1a5.16,5.16,0,0,1-1.1-.13c.82-.12,1.64-.34,2.34-.51a.2.2,0,0,0,0-.38A5.22,5.22,0,0,1,47.36,48L47.22,48,47,47.92a3.56,3.56,0,0,1-.8.08,4.8,4.8,0,0,1-2.92-1c0-.19,0-.37-.07-.54a9,9,0,0,0,2.93.91,17.32,17.32,0,0,0,2,.13h.42A3.21,3.21,0,0,0,50,49.1c.28.19.57.37.87.55a7.92,7.92,0,0,1-2.54.84,4,4,0,0,1-.49,0m7-.19a4.78,4.78,0,0,1-.66,0,11.29,11.29,0,0,1-3.08-1.13,4.75,4.75,0,0,1-2.16-1.66,8.82,8.82,0,0,0,3.66-1,16.57,16.57,0,0,0,4-3.22c.71-.74,2-2,2-3.15h0a.86.86,0,0,0,0-.16l0-.18h0a2.82,2.82,0,0,0-.63-1.09,18.3,18.3,0,0,0-1.46-1.38c-.52-.47-1-.93-1.57-1.38.27.13.54.26.8.41,1.5.86,3.26,2.47,3.7,4.2S57,44.39,55.76,45.29a13.05,13.05,0,0,1-5.2,2.42l-.06-.06a.14.14,0,0,0-.12-.07.22.22,0,0,0-.15.35A4.54,4.54,0,0,0,54,49.47a16.42,16.42,0,0,0,4.66-.88,7.57,7.57,0,0,0,4.07-2.8c1.2-1.69,1.48-3.87,2.84-5.46v-.28L65.46,40A2.89,2.89,0,0,1,64,37.43a5.22,5.22,0,0,0,.26.47,4.89,4.89,0,0,0,2.28,2.32c-2,1.56-2,3.86-3.05,5.94a7.25,7.25,0,0,1-4,3.1,16.1,16.1,0,0,1-4.67,1.07M68.28,40a4.27,4.27,0,0,1-.93-.1A4.06,4.06,0,0,1,66,39.36a5.09,5.09,0,0,0,2.09.44,5.24,5.24,0,0,0,3-.94,4.49,4.49,0,0,1-1.5,1,4.21,4.21,0,0,1-1.33.22"/><path id="path2110" class="cls-38" d="M46.12,28.11c-.76,0-1.13-1.93-.71-3.86,0-.16.23-.68.13-.68s-.07,0-.14.11c-.37.4-1,1.44-1,3.87A6.78,6.78,0,0,1,44.78,24a3.4,3.4,0,0,1,1.1-1.58.61.61,0,0,1,.3-.08c.65,0,.79,1.32.85,1.95s.39,3.13-.59,3.72a.6.6,0,0,1-.32.1"/><path id="path2112" class="cls-25" d="M43.51,21.68c.05-.26.3-1,.36-1.24.38-1.08.79-2.46,1.55-2.55h0a.66.66,0,0,1,.36.13,8.41,8.41,0,0,1,1.08,2.68,2.1,2.1,0,0,0-1.45-.63h-.21c-.58.06-.88.45-1.37,1l-.37.59"/><path id="path2114" class="cls-39" d="M45.72,18.14l-.34-.1c-.62.05-.92,1-1.22,1.76,0,.17-.24.67-.27.85l.29-.4c.39-.38.63-.65,1.1-.68a1.9,1.9,0,0,1,1.36.46,5.64,5.64,0,0,0-.92-1.89"/><path id="path2116" class="cls-39" d="M47,25.55c0,1.79-.37,2.31-.75,2.3s-.74-.53-.71-1.81.44-2.85.83-2.84.6,1.07.63,2.35"/><path id="path2118" class="cls-40" d="M46.37,24.46c-.1.88-.29,1.16-.47,1.15s-.16-.43-.11-.82a2.48,2.48,0,0,1,.44-1.23c.16-.1.19.41.14.9"/><path id="path2120" class="cls-38" d="M67.5,26.49a.79.79,0,0,1-.29-.06C66,26,66,23.55,66,22.86s0-2.09.79-2.09a1.47,1.47,0,0,1,.27,0,3.41,3.41,0,0,1,1.49,1.38,5.79,5.79,0,0,1,.91,3.45c-.35-2.4-1.19-3.33-1.66-3.67a.39.39,0,0,0-.18-.08c-.14,0,.18.5.25.65.78,1.91.61,3.95-.36,3.95"/><path id="path2122" class="cls-25" d="M62.63,18.43A9.89,9.89,0,0,1,64,14.77a1.3,1.3,0,0,1,.65-.31l.18,0c1.17,0,2,1.45,2.76,2.58.14.29.65,1.08.78,1.38l-.7-.59a4,4,0,0,0-2-.76l-.4,0a4.48,4.48,0,0,0-2.62,1.35"/><path id="path2124" class="cls-39" d="M64.19,14.87a1.32,1.32,0,0,1,.53-.24c1-.16,1.67.9,2.27,1.71.1.2.49.74.58.95L67,16.9a2.82,2.82,0,0,0-1.9-.44A4.33,4.33,0,0,0,63,17.51a7.31,7.31,0,0,1,1.22-2.64"/><path id="path2126" class="cls-39" d="M66.18,24.1c.21,1.78.76,2.23,1.2,2.15s.77-.65.55-1.91S67,21.6,66.57,21.68s-.54,1.15-.39,2.42"/><path id="path2128" class="cls-40" d="M66.27,22.72c-.09.88,0,1.2.26,1.25s.29-.37.32-.77a2.19,2.19,0,0,0-.21-1.32c-.16-.13-.31.35-.37.84"/><path id="path2130" class="cls-41" d="M30.06,35.63c.1-2.38,1.74-4.5,3.5-6a17,17,0,0,1,3.69-2.11l-1.12.73A8.47,8.47,0,0,0,33.45,30a15.75,15.75,0,0,0-2.65,3.58,4.06,4.06,0,0,0-.62,1.73l-.12.33M41.51,18.08c.89-1.3,1.8-2.58,2.71-3.86a23.73,23.73,0,0,1,7.45-5h0A6.44,6.44,0,0,0,51.06,9h-.31a3.9,3.9,0,0,1-.59,0V8.86l.4-.14h.08a5.35,5.35,0,0,1,1.59-.26h.25A8.32,8.32,0,0,0,50,7.53l-.5.13,0-.07a6.16,6.16,0,0,1,3.33-1,7.16,7.16,0,0,0-2.39.51,5.5,5.5,0,0,1,1-.09,4.8,4.8,0,0,1,1.07.11,8,8,0,0,0-1.21.16A3.66,3.66,0,0,1,53.48,8.9L53.42,9l-.54-.31-.58.14a4.21,4.21,0,0,0-.62-.05h-.12a3.41,3.41,0,0,1,.46.1,4.48,4.48,0,0,1,1.33,1.06L53.3,10a12.47,12.47,0,0,1-1.38-.65C51,9.88,50.09,10.42,49.2,11a11.47,11.47,0,0,0-2.58,1.86,34.25,34.25,0,0,0-4.12,4c-.33.38-.66.78-1,1.18M69.16,9.8c-.56-.19-1.13-.37-1.72-.53L67,9.16c-1.48-.57-3-1-4.48-1.61-.57-.13-1.27-.26-2-.46.77.21,1.52.36,2.11.49a60.44,60.44,0,0,1,7.61,2A37.9,37.9,0,0,0,66.65,8.5a27,27,0,0,1,2.51,1.3m-12.72-2-.14,0a11.68,11.68,0,0,0-2.92-1.2h-.07a6.22,6.22,0,0,1,2.48.58h0a1.94,1.94,0,0,1-.49-1.3,4.13,4.13,0,0,1,1.54-2.75l.1.08-.16.3c0,.14,0,.27,0,.39s0,.16,0,.23a4,4,0,0,0-.16.66,2.74,2.74,0,0,1,0-.91A5.9,5.9,0,0,0,55.91,5a3.08,3.08,0,0,0,.47,2.46l.18.14-.12.17"/><path id="path2132" class="cls-42" d="M46.62,12.85A11.47,11.47,0,0,1,49.2,11a25.64,25.64,0,0,0-2.35,1.67l-.23.19M67,9.16c-2.62-.68-5.4-1-7.92-2a3.67,3.67,0,0,1-2.5-2.44,4,4,0,0,1,.16-.66c.15,1.72,2,2.53,3.8,3,.71.2,1.41.33,2,.46,1.44.64,3,1,4.48,1.61m-15-.3a3.41,3.41,0,0,0-.46-.1h.12a4.21,4.21,0,0,1,.62.05l-.29,0h0m4.28-1.1a9.53,9.53,0,0,0-3.42-.69h-.47A4.8,4.8,0,0,0,51.34,7a5.5,5.5,0,0,0-1,.09,7.16,7.16,0,0,1,2.39-.51h.63a11.68,11.68,0,0,1,2.92,1.2"/><path id="path2134" class="cls-42" d="M30.18,35.3a4.06,4.06,0,0,1,.62-1.73A15.75,15.75,0,0,1,33.45,30a8.47,8.47,0,0,1,2.68-1.75,14.18,14.18,0,0,0-4.22,3.86,14.56,14.56,0,0,0-1.73,3.2"/><path id="path2136" class="cls-43" d="M55.49,54.17A17.86,17.86,0,0,1,52.67,54c-2.16-.33-4.42-1.15-5.71-3L47,51h0l.09.13h0l.74.2a12.06,12.06,0,0,0,7.39,2.22,20.14,20.14,0,0,0,6.48-1.14,15.52,15.52,0,0,0,3.85-1.79,20.62,20.62,0,0,0,3.07-2.91,37.13,37.13,0,0,1,6.42-5.24l.09.05A31.32,31.32,0,0,1,84,38.39a12.51,12.51,0,0,0,5.88-3,11.22,11.22,0,0,0,2.24-2.89,4.57,4.57,0,0,0,0-3.81c-.1-.16-.2-.32-.29-.49l.1-.07.2.2.09,0,0,.08a7.8,7.8,0,0,1,1.63,1.71,11.78,11.78,0,0,0-.62-3.83,10,10,0,0,0-2.87-4,17.79,17.79,0,0,0-9.66-4.07v-.1h.06a14.35,14.35,0,0,1,1.61.09c-1.08-.81-2-1.8-3.1-2.62S76.92,13.82,75.7,13A28.81,28.81,0,0,0,69.16,9.8a27,27,0,0,0-2.51-1.3,37.9,37.9,0,0,1,3.63,1.09h0a32.12,32.12,0,0,1,7,3.82,31,31,0,0,1,5.92,4.83A14.52,14.52,0,0,1,91,22a10.52,10.52,0,0,1,3.48,7.42,7.83,7.83,0,0,1-.31,2.19l-.14.07-.1-.06a6.07,6.07,0,0,0-1.06-2l-.17-.22h0a4.88,4.88,0,0,1,.25,1.52,5.41,5.41,0,0,1-1.22,3.28,11.46,11.46,0,0,1-5.42,4.2,60.54,60.54,0,0,0-7,2.47,75.61,75.61,0,0,0-7,4c-.36.29-.72.59-1.06.89a38,38,0,0,0-3.55,3.85c-1.77,2.09-4.47,3.13-7,3.85a18.74,18.74,0,0,1-5.1.71"/><path id="path2138" class="cls-43" d="M43.25,48.92A2.6,2.6,0,0,1,43,47.8a34.14,34.14,0,0,1-4.64-1.93,28.69,28.69,0,0,1-4.82-2.67c-1.23-.88-3.06-2.79-3.07-4.47a2.07,2.07,0,0,1,.32-1.12h0l-.09.06-.44.35a4.45,4.45,0,0,0-.91,1.1l-.09.29-.06,0-.05.13H29a1.83,1.83,0,0,1,.07-.53h0a1.7,1.7,0,0,1,0-.22,12,12,0,0,1,2.41-7.09A10.12,10.12,0,0,1,34.1,29c.24-.16.49-.32.75-.47a11.87,11.87,0,0,1,1.25-3.07c.59-1.12,1.15-2.26,1.81-3.35A40,40,0,0,1,42,16.5c.69-.77,1.42-1.54,2.19-2.28-.91,1.28-1.82,2.56-2.71,3.86a37.6,37.6,0,0,0-3.21,4.61,31.77,31.77,0,0,0-2.7,5.45c.57-.31,1.16-.59,1.74-.87l.07.14-.16.1a17,17,0,0,0-3.69,2.11c-1.76,1.51-3.4,3.63-3.5,6v0a17.2,17.2,0,0,0-.51,2.45l.27-.32c.3-.33.86-.92,1.38-.92a.45.45,0,0,1,.16,0l.08,0,.09-.06.1.11c-1.94,2.92,1.67,5.59,3.9,6.85A50.89,50.89,0,0,0,43,47.19c0-.27,0-.53,0-.77a6,6,0,0,0,.25,2.5"/><path id="path2140" class="cls-44" d="M47.84,51.33l-.74-.2.73.2h0"/><path id="path2142" class="cls-45" d="M47.83,51.33l-.73-.2h0L47,51l.47,0,.35.29"/><path id="path2144" class="cls-46" d="M48.06,51c-.21,0-.41,0-.62,0l0,0h0l0,0c.21,0,.41,0,.62,0A5.4,5.4,0,0,0,51.37,50a9.63,9.63,0,0,0,2,.83,5.44,5.44,0,0,0,1.45.18,10.78,10.78,0,0,0,3.81-.85c.85-.29,1.69-.59,2.47-.94a6.65,6.65,0,0,0,2.48-2c1.55-2.07,1.21-5,3.11-6.81v0a4.65,4.65,0,0,0,.52.2,3.85,3.85,0,0,0,1,.14,3.65,3.65,0,0,0,3.17-1.83h0a3.65,3.65,0,0,1-3.17,1.83,3.85,3.85,0,0,1-1-.14,4.65,4.65,0,0,1-.52-.2v0c-1.9,1.85-1.56,4.74-3.11,6.81a6.65,6.65,0,0,1-2.48,2c-.78.35-1.62.65-2.47.94a10.78,10.78,0,0,1-3.81.85,5.44,5.44,0,0,1-1.45-.18,9.63,9.63,0,0,1-2-.83A5.4,5.4,0,0,1,48.06,51"/><path id="path2146" class="cls-47" d="M46.52,50.84a5.42,5.42,0,0,1-1.1-.42h-.06A3.82,3.82,0,0,1,43.28,49l0,0,0,0a3.82,3.82,0,0,0,2.08,1.45h.06a5.42,5.42,0,0,0,1.1.42h0"/><path id="path2148" class="cls-48" d="M43,46.42v-.07h0v.07"/><path id="path2150" class="cls-49" d="M47,51h0l0-.06h0L47,51"/><path id="path2152" class="cls-49" d="M43.28,49l0,0a6,6,0,0,1-.25-2.5v-.07l.08,0c.16.77-.23,1.65.12,2.41l.08.16"/><path id="path2154" class="cls-50" d="M46.52,50.84a5.42,5.42,0,0,1-1.1-.42h-.06A3.82,3.82,0,0,1,43.28,49h0l-.08-.16c-.35-.76,0-1.64-.12-2.41h0a2.28,2.28,0,0,1,0,.45l.2.18a3.86,3.86,0,0,0,.51,1.82,6.26,6.26,0,0,0,1.39,1.08,13.36,13.36,0,0,0,1.48.47,6.59,6.59,0,0,1-1,.07h-.19a5,5,0,0,0,1,.38M66,39.36a4.13,4.13,0,0,1-1.75-1.46c-.1-.22-.18-.44-.26-.67l.08,0A5.93,5.93,0,0,0,66,39.36m5.11-.5a1.33,1.33,0,0,0,.19-.14h0a1.33,1.33,0,0,1-.19.14"/><path id="path2156" class="cls-51" d="M48.06,51c-.21,0-.41,0-.62,0l0,0L47,51l0-.06-.44-.1a5,5,0,0,1-1-.38h.19a6.59,6.59,0,0,0,1-.07,5.16,5.16,0,0,0,1.1.13,4,4,0,0,0,.49,0,7.92,7.92,0,0,0,2.54-.84h0c-.3-.18-.59-.36-.87-.55a3.21,3.21,0,0,1-1.37-1.58l.34,0a4.75,4.75,0,0,0,2.16,1.66,11.29,11.29,0,0,0,3.08,1.13,4.87,4.87,0,0,0,.66,0,16.1,16.1,0,0,0,4.67-1.07,7.25,7.25,0,0,0,4-3.1c1.11-2.08,1.1-4.38,3.05-5.94h0a4.89,4.89,0,0,1-2.28-2.32A4.13,4.13,0,0,0,66,39.36a4.06,4.06,0,0,0,1.35.58,4.27,4.27,0,0,0,.93.1,4.21,4.21,0,0,0,1.33-.22,4.39,4.39,0,0,0,1.5-1l.2-.14.12.1a3.68,3.68,0,0,1-3.18,1.83,3.85,3.85,0,0,1-1-.14,4.65,4.65,0,0,1-.52-.2v0c-1.9,1.85-1.56,4.74-3.11,6.81a6.65,6.65,0,0,1-2.48,2c-.78.35-1.62.65-2.47.94a10.78,10.78,0,0,1-3.81.85,5.44,5.44,0,0,1-1.45-.18,9.63,9.63,0,0,1-2-.83A5.4,5.4,0,0,1,48.06,51m-4.74-4-.2-.18a2.28,2.28,0,0,0,0-.45l.17.09c0,.17,0,.35.07.54"/><path id="path2158" class="cls-52" d="M46.7,30.27l.63-.41-.09,0a4.72,4.72,0,0,1,2-.64,40,40,0,0,1,6-.71h.24l.89,0h-.11a60.22,60.22,0,0,0-8,.95,14.21,14.21,0,0,0-1.54.8"/><path id="path2160" class="cls-53" d="M40,37a14.76,14.76,0,0,1,1.76-2.26,24,24,0,0,1,4.9-4.49,14.21,14.21,0,0,1,1.54-.8,60.22,60.22,0,0,1,8-.95c-1.86.29-4.56.64-6.38,1s-3.51,1.71-5,2.85a21.58,21.58,0,0,0-3.33,3.21l0,0A10.06,10.06,0,0,0,40,37"/><path id="path2162" class="cls-54" d="M38.84,38.69A17.45,17.45,0,0,1,44.26,32a21.48,21.48,0,0,0-5.33,6.51l-.09.16m7.09-7.93q.57-.41,1.17-.78a.67.67,0,0,1,.14-.09l.09,0-.63.41c-.26.16-.52.32-.77.49"/><path id="path2164" class="cls-55" d="M38.93,38.53A21.48,21.48,0,0,1,44.26,32l.24-.19c.47-.36.94-.72,1.43-1.07.25-.17.51-.33.77-.49a24,24,0,0,0-4.9,4.49A14.76,14.76,0,0,0,40,37a15.6,15.6,0,0,0-1,1.39.83.83,0,0,1-.08.12"/><path id="path2166" class="cls-39" d="M58.6,39.94l0-.18c-.27-1-1.38-1.82-2.09-2.47-.89-.81-1.8-1.61-2.75-2.34A10.21,10.21,0,0,0,51,33.38a7.25,7.25,0,0,0-3.31-.07,12.19,12.19,0,0,0-6.14,2.27A11.5,11.5,0,0,0,39,38.41,17.28,17.28,0,0,0,38.09,40c-.69,1.36.6,2.45,1.44,3.42a10.63,10.63,0,0,0,6.65,3.94,10.23,10.23,0,0,0,6.41-.92,16.57,16.57,0,0,0,4-3.22c.74-.77,2.17-2.14,2-3.31"/><path id="path2168" class="cls-56" d="M58.57,39.76a3,3,0,0,0-.63-1.09,2.82,2.82,0,0,1,.63,1.09"/><path id="path2170" class="cls-57" d="M47.91,47l-.76,0a10.19,10.19,0,0,1-6.06-2.66,13.74,13.74,0,0,1-2.18-2.51,1.87,1.87,0,0,1-.34-1,2.82,2.82,0,0,0,.8-.66c.43-.46.54-.73,1.16-.73h.14c1.69.1,3,1.06,4.59,1.35a2.89,2.89,0,0,0,.5,0,5.65,5.65,0,0,0,3-1.23,13.93,13.93,0,0,1,1.55-1,2.62,2.62,0,0,1,1.26-.32,4.17,4.17,0,0,1,1.71.44,7.25,7.25,0,0,0,3.17.82h.19a.62.62,0,0,0,.67-.45l.45.58c.49,1.37-2.48,4-4.32,5.5A8.69,8.69,0,0,1,47.91,47M40.5,41.34c.15.29.45.42,1,.66,1.18.52,2.84.94,3.8,1.88.11.16.23.33.33.49l.1,0c-.8-2.2-2.7-4.36-5.09-4.79h-.05a.24.24,0,0,0-.23.26,11.18,11.18,0,0,0,0,1.83h.15v-.28m10.86-2.67h-.12c-.81.09-1.3,1.13-1.7,1.84s-1.39,2.82-.9,3.63c-.42-.69,4-3.22,4.51-3.33a.32.32,0,0,0,.23-.42,2.45,2.45,0,0,0-2-1.73"/><path id="path2172" class="cls-57" d="M39.53,43.45c-.67-.77-1.64-1.63-1.64-2.63a1.68,1.68,0,0,1,.2-.79A17.28,17.28,0,0,1,39,38.41a11.5,11.5,0,0,1,2.51-2.83,12.19,12.19,0,0,1,6.14-2.27,15.94,15.94,0,0,1,1.83-.16,4.4,4.4,0,0,1,1.48.23A10.21,10.21,0,0,1,53.73,35c1,.73,1.86,1.53,2.75,2.34a18.3,18.3,0,0,1,1.46,1.38,9.88,9.88,0,0,0-.93-.9,2.28,2.28,0,0,1,.34,1.37,21.87,21.87,0,0,0-3.79-3.5,8.05,8.05,0,0,0-5-2,7,7,0,0,0-1.18.1,10.48,10.48,0,0,0-6.06,2.86,22.49,22.49,0,0,0-2.36,2.9,2.78,2.78,0,0,0-.35,1.41l-.09,0a.87.87,0,0,1-.36.09.51.51,0,0,1-.22-.05c.08,1,1,1.77,1.63,2.51"/><path id="path2174" class="cls-58" d="M48.17,47.52a17.32,17.32,0,0,1-2-.13,9,9,0,0,1-2.93-.91l-.17-.09a12.67,12.67,0,0,1-3.55-2.94h0c-.65-.74-1.55-1.56-1.63-2.51a.51.51,0,0,0,.22.05.9.9,0,0,0,.36-.09l.09,0a1.87,1.87,0,0,0,.34,1,13.74,13.74,0,0,0,2.18,2.51A10.19,10.19,0,0,0,47.15,47l.76,0a8.69,8.69,0,0,0,5.57-1.8c1.84-1.5,4.81-4.13,4.32-5.5l-.45-.58A2.36,2.36,0,0,0,57,37.77a9.88,9.88,0,0,1,.93.9,2.82,2.82,0,0,1,.63,1.09l0,.18v.16c0,1.13-1.33,2.41-2,3.15a16.57,16.57,0,0,1-4,3.22,8.82,8.82,0,0,1-3.66,1l-.34,0h-.42"/><path id="path2176" class="cls-59" d="M48.64,44.15c-.49-.81.49-2.91.9-3.63s.88-1.75,1.7-1.84h.12a2.45,2.45,0,0,1,2,1.73.32.32,0,0,1-.23.42c-.47.11-4.93,2.64-4.51,3.33"/><path id="path2178" class="cls-59" d="M45.62,44.37c-.1-.16-.22-.33-.33-.49-1-.94-2.62-1.36-3.8-1.88-.54-.24-.84-.37-1-.66v.28h-.15a11.18,11.18,0,0,1,0-1.83.24.24,0,0,1,.23-.26h.05c2.39.43,4.29,2.59,5.09,4.79l-.1,0"/><path id="path2180" class="cls-40" d="M50,35c-.91-1-2.46-.8-3.69-.52a7.55,7.55,0,0,0-4.72,3l.12.14c2.48-1.69,5.22-2.13,8.15-2.31A.2.2,0,0,0,50,35"/><path id="path2182" class="cls-40" d="M52.27,35.06c-.64-.49-3.25-1.12-2.43-.53s1,1,2,1.15,1.64.29.43-.62"/><path id="path2184" class="cls-4" d="M39,28.58a12.69,12.69,0,0,0-5.31,2c-1.49,1.18-2,2.81-2.79,4.43l.09,0c1.18-1.21,1.77-2.81,3.07-3.95,1.49-1.3,3.17-1.67,5-2.34l0-.18"/><path id="path2186" class="cls-4" d="M41,27.4c-2-.33-3.72.55-5.33,1.58l0,0A35.77,35.77,0,0,1,41,27.58V27.4"/><path id="path2188" class="cls-4" d="M90.89,24.24a11.06,11.06,0,0,0-4.37-3.47,9.24,9.24,0,0,0-5.38-.35v.13a11.26,11.26,0,0,1,5.16,1,14.1,14.1,0,0,1,4.47,2.81l.11-.1"/><path id="path2190" class="cls-4" d="M83.32,19.65a5.84,5.84,0,0,0-6.1,1.25l.1.11c1.93-1.09,3.85-1.06,6-1.26v-.1"/><path id="path2192" class="cls-4" d="M61.41,8.27c-1.85-.69-4.75-1.33-4.89-3.77h-.13c-.51,2.83,2.82,3.61,5,4l.06-.21"/><path id="path2194" class="cls-4" d="M56.21,8.34c-.69-1.43-2.93-1.16-4.21-1v0a9.1,9.1,0,0,1,4.09,1.11l.12-.12"/><path id="path2196" class="cls-4" d="M52.42,8.78l-.06.1a5.2,5.2,0,0,0,1.09.52,3.44,3.44,0,0,1,1.1.83l.18-.13c-.21-1-1.59-1-2.31-1.32"/><path id="path2198" class="cls-5" d="M23.67,124.9A7.71,7.71,0,0,1,22,121.58c0-.12-.07-.23-.1-.35l0,0c0-.1-.08-.19-.13-.29-.95-3.07-2.23-5.8-6.41-7.26a27.06,27.06,0,0,0-6.57-1H8.69c-.22,0-.57.06-1,.11a9.05,9.05,0,0,1-1.33.11A2.32,2.32,0,0,1,4,111.54l.09-.24c.63-1.44,3.09-1.44,4.59-3,2.4-2.51,4.71-4.31,6.87-4.31a3.63,3.63,0,0,1,1.26.22,4.48,4.48,0,0,1,3,3.73c.24,1.42.37,2.71.63,4.11a22.84,22.84,0,0,0,1.08,4.25c1,2.49,2.14,4.95,2.2,7.73v.17c0,.23,0,.47,0,.71"/><path id="path2200" class="cls-60" d="M20,129.66a7,7,0,0,1-5.29-3.25c-1.19-1.84-1.82-4-3.05-5.84-1.38-2-3.51-2.87-5.37-4.23-1.5-1.09-2.58-2.15-2.58-3.58A3.34,3.34,0,0,1,4,111.54a2.32,2.32,0,0,0,2.41,1.29,9.05,9.05,0,0,0,1.33-.11c.4,0,.75-.11,1-.11h.08a27.06,27.06,0,0,1,6.57,1c4.18,1.46,5.46,4.19,6.41,7.26-1.72-3.58-5.85-7.42-10.06-7.42a5.51,5.51,0,0,0-1,.08v.1c4.73.2,8.64,3.8,11,7.61l.12-.06c0,.12.07.23.1.35a7.71,7.71,0,0,0,1.72,3.32c-.17,2.26-1.22,4.66-3.46,4.76H20"/><path id="path2202" class="cls-61" d="M21.85,121.23c0-.1-.07-.21-.1-.31.05.1.09.19.13.29l0,0"/><path id="path2204" class="cls-62" d="M21.73,121.29c-2.38-3.81-6.29-7.41-11-7.61v-.1a5.51,5.51,0,0,1,1-.08c4.21,0,8.34,3.84,10.06,7.42,0,.1.06.21.1.31l-.12.06"/><path id="path2206" class="cls-5" d="M109.4,128.17a4.76,4.76,0,0,1-1.26-.14v-.09c0-1.36,1.12-2.21,2.38-2.73a10.84,10.84,0,0,0,4.94-3.52,14.51,14.51,0,0,0,2.34-6,8.53,8.53,0,0,1,4.1-6,9,9,0,0,1,4.44-1.13,7.47,7.47,0,0,1,3.84,1c2.06,1.25,2.87,3.88,5.14,4.92,1,.48,2.27.6,2.94,1.63a2.47,2.47,0,0,1,.37,1.37,4.34,4.34,0,0,1-.06.71,3.21,3.21,0,0,1-2,1.37,6.82,6.82,0,0,1-1,.07,15.77,15.77,0,0,1-4.64-.94,16.21,16.21,0,0,0-4.65-.93,8.18,8.18,0,0,0-1,.06c-4.56.58-7.3,4.49-10.58,7.26-1.1.93-3.73,3-5.18,3h-.1"/><path id="path2208" class="cls-60" d="M113.57,131.48a10.19,10.19,0,0,1-2.85-.37,3.41,3.41,0,0,1-2.49-2.46,3.71,3.71,0,0,1-.09-.62,4.76,4.76,0,0,0,1.26.14h.1c1.45,0,4.08-2.09,5.18-3,3.28-2.77,6-6.68,10.58-7.26a8.18,8.18,0,0,1,1-.06,16.21,16.21,0,0,1,4.65.93,15.77,15.77,0,0,0,4.64.94,6.82,6.82,0,0,0,1-.07,3.21,3.21,0,0,0,2-1.37,9.81,9.81,0,0,1-.82,2.47c-2.14,4.75-7.9,5.57-12.35,7.33-2.54,1-5,2.62-7.75,3a27.64,27.64,0,0,1-4.08.4m15.21-12.18a27.53,27.53,0,0,0-4.11.38,16.18,16.18,0,0,0-6,2.66l0,.06a21.91,21.91,0,0,1,6-2.17,39.59,39.59,0,0,1,5.29-.39c.65,0,1.31,0,2,.06h0a.09.09,0,0,0,0-.18,11.23,11.23,0,0,0-3.23-.42"/><path id="path2210" class="cls-62" d="M118.7,122.4l0-.06a16.18,16.18,0,0,1,6-2.66,27.53,27.53,0,0,1,4.11-.38,11.23,11.23,0,0,1,3.23.42.09.09,0,0,1,0,.18h0c-.66,0-1.32-.06-2-.06a39.59,39.59,0,0,0-5.29.39,21.91,21.91,0,0,0-6,2.17"/><path id="path2212" class="cls-4" d="M34.28,83.25c-1.44-3-3.07-5.92-4.32-9a41.15,41.15,0,0,1-2.41-10.15,53.7,53.7,0,0,1,1.5-20.46l-.18-.06c-2.93,6.1-3.26,13.29-2.6,19.92C27,70.7,30.1,77.37,34.12,83.33l.16-.08"/><path id="path2214" class="cls-4" d="M122.61,82.24c-1.43-1.77-3.29-3.88-5.8-3.44a.16.16,0,0,0,0,.31c2.82,0,4.11,2.56,5.55,4.61a29.3,29.3,0,0,1,3.34,7.2.14.14,0,0,0,.26-.06,13.65,13.65,0,0,0-3.38-8.62"/><path id="path2216" class="cls-4" d="M23.4,82.2c-2.24-1-4.43,1.4-5.65,3a17.66,17.66,0,0,0-3.43,7.38l.19.06c1.84-4,4.48-8.54,8.87-10.09a.18.18,0,0,0,0-.33"/><path id="path2218" class="cls-4" d="M107.71,51.42a27.84,27.84,0,0,0-3.83-12.28l0,0c2.12,4,2.71,8.5,3.13,13A116.34,116.34,0,0,1,107.45,65c-.19,10.42-4.17,19.34-10.51,27.45-.11.14-2.38,2.57.22.18,7.1-6.56,10.6-16.73,11-26.28a110,110,0,0,0-.46-15"/></g></g></g></g></svg>